<svg width="425" height="347" viewBox="0 0 425 347" fill="none" xmlns="http://www.w3.org/2000/svg">
<g filter="url(#filter0_d_943_38276)">
<rect x="60" y="60" width="265" height="455.956" rx="7.79412" fill="white" shape-rendering="crispEdges"/>
<path d="M291.485 86.8237C290.627 86.8237 289.926 87.5544 289.926 88.4475C289.926 89.3406 290.627 90.0713 291.485 90.0713C292.342 90.0713 293.044 89.3406 293.044 88.4475C293.044 87.5544 292.342 86.8237 291.485 86.8237Z" stroke="#1A202C" stroke-width="1.16912"/>
<path d="M302.397 86.8237C301.539 86.8237 300.838 87.5544 300.838 88.4475C300.838 89.3406 301.539 90.0713 302.397 90.0713C303.254 90.0713 303.956 89.3406 303.956 88.4475C303.956 87.5544 303.254 86.8237 302.397 86.8237Z" stroke="#1A202C" stroke-width="1.16912"/>
<path d="M296.941 86.8237C296.084 86.8237 295.382 87.5544 295.382 88.4475C295.382 89.3406 296.084 90.0713 296.941 90.0713C297.798 90.0713 298.5 89.3406 298.5 88.4475C298.5 87.5544 297.798 86.8237 296.941 86.8237Z" stroke="#1A202C" stroke-width="1.16912"/>
<path d="M82.9201 93.8547C82.3382 93.8547 81.7978 93.7466 81.299 93.5305C80.8001 93.306 80.3761 93.0026 80.027 92.6201C79.6778 92.2377 79.4201 91.7971 79.2538 91.2983L80.5008 90.7745C80.7253 91.3481 81.0537 91.7888 81.486 92.0964C81.9183 92.404 82.4172 92.5578 82.9825 92.5578C83.315 92.5578 83.606 92.5079 83.8554 92.4081C84.1048 92.3001 84.2961 92.1504 84.4291 91.9592C84.5704 91.768 84.6411 91.5477 84.6411 91.2983C84.6411 90.9574 84.5455 90.6872 84.3543 90.4877C84.163 90.2881 83.8804 90.1302 83.5063 90.0138L81.7604 89.4651C81.062 89.2489 80.5299 88.9205 80.1641 88.4799C79.7983 88.031 79.6154 87.5072 79.6154 86.9086C79.6154 86.3848 79.7443 85.9276 80.002 85.5368C80.2597 85.1378 80.6131 84.826 81.062 84.6015C81.5193 84.3771 82.0389 84.2648 82.6208 84.2648C83.1779 84.2648 83.685 84.3646 84.1423 84.5641C84.5995 84.7554 84.9903 85.0214 85.3145 85.3623C85.647 85.7031 85.8881 86.098 86.0378 86.547L84.8157 87.0832C84.6328 86.5927 84.3459 86.2144 83.9552 85.9484C83.5728 85.6823 83.128 85.5493 82.6208 85.5493C82.3132 85.5493 82.043 85.6034 81.8103 85.7114C81.5775 85.8112 81.3946 85.9608 81.2615 86.1604C81.1368 86.3516 81.0745 86.5761 81.0745 86.8338C81.0745 87.1331 81.1701 87.3991 81.3613 87.6319C81.5525 87.8647 81.8435 88.0393 82.2343 88.1557L83.8554 88.667C84.5954 88.8914 85.1524 89.2157 85.5265 89.6397C85.9006 90.0554 86.0877 90.575 86.0877 91.1985C86.0877 91.7139 85.9505 92.1712 85.6761 92.5703C85.4101 92.9693 85.0401 93.2852 84.5663 93.518C84.0924 93.7425 83.5437 93.8547 82.9201 93.8547ZM90.6078 93.8547C89.9593 93.8547 89.3649 93.7009 88.8245 93.3933C88.2924 93.0857 87.8684 92.6659 87.5525 92.1338C87.2366 91.6017 87.0786 90.999 87.0786 90.3255C87.0786 89.6438 87.2366 89.0411 87.5525 88.5173C87.8684 87.9852 88.2924 87.5695 88.8245 87.2703C89.3566 86.9626 89.951 86.8088 90.6078 86.8088C91.2729 86.8088 91.8673 86.9626 92.3911 87.2703C92.9231 87.5695 93.343 87.9852 93.6506 88.5173C93.9665 89.0411 94.1245 89.6438 94.1245 90.3255C94.1245 91.0073 93.9665 91.6142 93.6506 92.1463C93.3347 92.6783 92.9107 93.0982 92.3786 93.4058C91.8465 93.7051 91.2562 93.8547 90.6078 93.8547ZM90.6078 92.5453C91.0068 92.5453 91.3602 92.4497 91.6678 92.2585C91.9754 92.0673 92.2165 91.8054 92.3911 91.4728C92.574 91.132 92.6654 90.7495 92.6654 90.3255C92.6654 89.9015 92.574 89.5233 92.3911 89.1907C92.2165 88.8582 91.9754 88.5963 91.6678 88.4051C91.3602 88.2139 91.0068 88.1183 90.6078 88.1183C90.217 88.1183 89.8637 88.2139 89.5478 88.4051C89.2402 88.5963 88.9949 88.8582 88.812 89.1907C88.6374 89.5233 88.5501 89.9015 88.5501 90.3255C88.5501 90.7495 88.6374 91.132 88.812 91.4728C88.9949 91.8054 89.2402 92.0673 89.5478 92.2585C89.8637 92.4497 90.217 92.5453 90.6078 92.5453ZM98.4558 93.8547C97.7824 93.8547 97.1838 93.7009 96.66 93.3933C96.1445 93.0774 95.733 92.6534 95.4254 92.1213C95.1261 91.5892 94.9765 90.9865 94.9765 90.3131C94.9765 89.648 95.1261 89.0494 95.4254 88.5173C95.7247 87.9852 96.1362 87.5695 96.66 87.2703C97.1838 86.9626 97.7824 86.8088 98.4558 86.8088C98.913 86.8088 99.3412 86.892 99.7402 87.0583C100.139 87.2162 100.484 87.4365 100.775 87.7192C101.075 88.0019 101.295 88.3303 101.436 88.7044L100.202 89.278C100.06 88.9288 99.8317 88.6503 99.5158 88.4425C99.2082 88.2263 98.8548 88.1183 98.4558 88.1183C98.0733 88.1183 97.7283 88.2139 97.4207 88.4051C97.1214 88.588 96.8845 88.8499 96.7099 89.1907C96.5353 89.5233 96.448 89.9015 96.448 90.3255C96.448 90.7495 96.5353 91.132 96.7099 91.4728C96.8845 91.8054 97.1214 92.0673 97.4207 92.2585C97.7283 92.4497 98.0733 92.5453 98.4558 92.5453C98.8631 92.5453 99.2165 92.4414 99.5158 92.2335C99.8234 92.0174 100.052 91.7306 100.202 91.3731L101.436 91.9592C101.303 92.3167 101.087 92.6409 100.788 92.9319C100.497 93.2146 100.152 93.439 99.7527 93.6053C99.3536 93.7716 98.9213 93.8547 98.4558 93.8547ZM102.564 93.7051V86.9585H103.973V93.7051H102.564ZM102.564 86.0357V84.4145H103.973V86.0357H102.564ZM107.392 93.8547C106.934 93.8547 106.531 93.7757 106.182 93.6178C105.841 93.4515 105.575 93.227 105.384 92.9444C105.193 92.6534 105.097 92.3125 105.097 91.9218C105.097 91.556 105.176 91.2276 105.334 90.9366C105.5 90.6456 105.754 90.4004 106.095 90.2008C106.436 90.0013 106.864 89.86 107.379 89.7768L109.724 89.3903V90.5001L107.654 90.8618C107.279 90.9283 107.005 91.0488 106.831 91.2234C106.656 91.3897 106.569 91.6059 106.569 91.8719C106.569 92.1296 106.664 92.3416 106.855 92.5079C107.055 92.6659 107.309 92.7448 107.616 92.7448C107.999 92.7448 108.331 92.6617 108.614 92.4954C108.905 92.3292 109.129 92.1088 109.287 91.8345C109.445 91.5518 109.524 91.2401 109.524 90.8992V89.1658C109.524 88.8332 109.399 88.563 109.15 88.3552C108.909 88.139 108.585 88.031 108.177 88.031C107.803 88.031 107.475 88.1307 107.192 88.3303C106.918 88.5215 106.714 88.7709 106.581 89.0785L105.409 88.4924C105.534 88.1598 105.737 87.8688 106.02 87.6194C106.303 87.3617 106.631 87.1622 107.005 87.0208C107.388 86.8795 107.791 86.8088 108.215 86.8088C108.747 86.8088 109.217 86.9086 109.624 87.1081C110.04 87.3077 110.36 87.5862 110.584 87.9437C110.817 88.2928 110.933 88.7002 110.933 89.1658V93.7051H109.587V92.483L109.873 92.5204C109.715 92.7947 109.512 93.0317 109.262 93.2312C109.021 93.4307 108.743 93.5845 108.427 93.6926C108.119 93.8007 107.774 93.8547 107.392 93.8547ZM112.332 93.7051V84.2648H113.741V93.7051H112.332ZM117.207 93.7051V84.4145H118.578L122.07 89.2531H121.384L124.814 84.4145H126.185V93.7051H124.726V86.1479L125.275 86.2975L121.771 91.0863H121.621L118.192 86.2975L118.678 86.1479V93.7051H117.207ZM130.887 93.8547C130.214 93.8547 129.615 93.7009 129.091 93.3933C128.576 93.0774 128.173 92.6534 127.882 92.1213C127.591 91.5809 127.445 90.9782 127.445 90.3131C127.445 89.6314 127.591 89.0286 127.882 88.5048C128.181 87.9811 128.58 87.5695 129.079 87.2703C129.578 86.9626 130.143 86.8088 130.775 86.8088C131.282 86.8088 131.735 86.8961 132.134 87.0707C132.533 87.2453 132.87 87.4864 133.144 87.794C133.419 88.0933 133.627 88.4383 133.768 88.8291C133.918 89.2198 133.992 89.6355 133.992 90.0761C133.992 90.1842 133.988 90.2965 133.98 90.4128C133.972 90.5292 133.955 90.6373 133.93 90.7371H128.555V89.6147H133.132L132.458 90.126C132.542 89.7186 132.513 89.357 132.371 89.0411C132.238 88.7168 132.03 88.4633 131.748 88.2804C131.473 88.0892 131.149 87.9935 130.775 87.9935C130.401 87.9935 130.068 88.0892 129.777 88.2804C129.486 88.4633 129.262 88.7293 129.104 89.0785C128.946 89.4194 128.884 89.835 128.917 90.3255C128.875 90.7828 128.938 91.1819 129.104 91.5227C129.278 91.8636 129.52 92.1296 129.827 92.3208C130.143 92.5121 130.501 92.6077 130.9 92.6077C131.307 92.6077 131.652 92.5162 131.935 92.3333C132.226 92.1504 132.454 91.9135 132.621 91.6225L133.768 92.1837C133.635 92.4996 133.427 92.7864 133.144 93.0441C132.87 93.2935 132.537 93.4931 132.147 93.6427C131.764 93.7841 131.344 93.8547 130.887 93.8547ZM138.236 93.8547C137.587 93.8547 137.005 93.7009 136.49 93.3933C135.983 93.0774 135.58 92.6534 135.28 92.1213C134.989 91.5892 134.844 90.9906 134.844 90.3255C134.844 89.6605 134.994 89.0619 135.293 88.5298C135.592 87.9977 135.995 87.5779 136.502 87.2703C137.01 86.9626 137.583 86.8088 138.223 86.8088C138.764 86.8088 139.242 86.9169 139.658 87.1331C140.073 87.3492 140.402 87.6485 140.643 88.031L140.431 88.3552V84.2648H141.827V93.7051H140.493V92.3333L140.655 92.5952C140.422 93.0026 140.09 93.3143 139.658 93.5305C139.225 93.7466 138.751 93.8547 138.236 93.8547ZM138.373 92.5453C138.764 92.5453 139.113 92.4497 139.421 92.2585C139.736 92.0673 139.982 91.8054 140.156 91.4728C140.339 91.132 140.431 90.7495 140.431 90.3255C140.431 89.9015 140.339 89.5233 140.156 89.1907C139.982 88.8582 139.736 88.5963 139.421 88.4051C139.113 88.2139 138.764 88.1183 138.373 88.1183C137.982 88.1183 137.629 88.2139 137.313 88.4051C136.997 88.5963 136.752 88.8582 136.577 89.1907C136.403 89.5233 136.315 89.9015 136.315 90.3255C136.315 90.7495 136.403 91.132 136.577 91.4728C136.752 91.8054 136.993 92.0673 137.301 92.2585C137.616 92.4497 137.974 92.5453 138.373 92.5453ZM143.223 93.7051V86.9585H144.632V93.7051H143.223ZM143.223 86.0357V84.4145H144.632V86.0357H143.223ZM148.051 93.8547C147.593 93.8547 147.19 93.7757 146.841 93.6178C146.5 93.4515 146.234 93.227 146.043 92.9444C145.852 92.6534 145.756 92.3125 145.756 91.9218C145.756 91.556 145.835 91.2276 145.993 90.9366C146.159 90.6456 146.413 90.4004 146.754 90.2008C147.095 90.0013 147.523 89.86 148.038 89.7768L150.383 89.3903V90.5001L148.313 90.8618C147.938 90.9283 147.664 91.0488 147.49 91.2234C147.315 91.3897 147.228 91.6059 147.228 91.8719C147.228 92.1296 147.323 92.3416 147.514 92.5079C147.714 92.6659 147.968 92.7448 148.275 92.7448C148.658 92.7448 148.99 92.6617 149.273 92.4954C149.564 92.3292 149.788 92.1088 149.946 91.8345C150.104 91.5518 150.183 91.2401 150.183 90.8992V89.1658C150.183 88.8332 150.058 88.563 149.809 88.3552C149.568 88.139 149.244 88.031 148.836 88.031C148.462 88.031 148.134 88.1307 147.851 88.3303C147.577 88.5215 147.373 88.7709 147.24 89.0785L146.068 88.4924C146.193 88.1598 146.396 87.8688 146.679 87.6194C146.962 87.3617 147.29 87.1622 147.664 87.0208C148.047 86.8795 148.45 86.8088 148.874 86.8088C149.406 86.8088 149.876 86.9086 150.283 87.1081C150.699 87.3077 151.019 87.5862 151.243 87.9437C151.476 88.2928 151.592 88.7002 151.592 89.1658V93.7051H150.246V92.483L150.532 92.5204C150.374 92.7947 150.171 93.0317 149.921 93.2312C149.68 93.4307 149.402 93.5845 149.086 93.6926C148.778 93.8007 148.433 93.8547 148.051 93.8547ZM155.058 93.7051V84.4145H158.438C159.061 84.4145 159.61 84.5309 160.084 84.7637C160.558 84.9881 160.928 85.3207 161.194 85.7613C161.468 86.1936 161.605 86.7132 161.605 87.3201C161.605 87.9603 161.443 88.509 161.119 88.9663C160.803 89.4235 160.375 89.7561 159.835 89.9639L161.979 93.7051H160.308L158.026 89.6521L158.987 90.2133H156.53V93.7051H155.058ZM156.53 88.9039H158.463C158.804 88.9039 159.099 88.8374 159.348 88.7044C159.598 88.5714 159.789 88.3885 159.922 88.1557C160.063 87.9146 160.134 87.6319 160.134 87.3077C160.134 86.9834 160.063 86.7049 159.922 86.4721C159.789 86.231 159.598 86.0481 159.348 85.9234C159.099 85.7904 158.804 85.7239 158.463 85.7239H156.53V88.9039ZM165.621 93.8547C164.948 93.8547 164.349 93.7009 163.825 93.3933C163.31 93.0774 162.907 92.6534 162.616 92.1213C162.325 91.5809 162.179 90.9782 162.179 90.3131C162.179 89.6314 162.325 89.0286 162.616 88.5048C162.915 87.9811 163.314 87.5695 163.813 87.2703C164.312 86.9626 164.877 86.8088 165.509 86.8088C166.016 86.8088 166.469 86.8961 166.868 87.0707C167.267 87.2453 167.604 87.4864 167.878 87.794C168.153 88.0933 168.361 88.4383 168.502 88.8291C168.652 89.2198 168.726 89.6355 168.726 90.0761C168.726 90.1842 168.722 90.2965 168.714 90.4128C168.706 90.5292 168.689 90.6373 168.664 90.7371H163.289V89.6147H167.866L167.192 90.126C167.276 89.7186 167.247 89.357 167.105 89.0411C166.972 88.7168 166.764 88.4633 166.482 88.2804C166.207 88.0892 165.883 87.9935 165.509 87.9935C165.135 87.9935 164.802 88.0892 164.511 88.2804C164.22 88.4633 163.996 88.7293 163.838 89.0785C163.68 89.4194 163.618 89.835 163.651 90.3255C163.609 90.7828 163.672 91.1819 163.838 91.5227C164.012 91.8636 164.254 92.1296 164.561 92.3208C164.877 92.5121 165.235 92.6077 165.634 92.6077C166.041 92.6077 166.386 92.5162 166.669 92.3333C166.96 92.1504 167.188 91.9135 167.355 91.6225L168.502 92.1837C168.369 92.4996 168.161 92.7864 167.878 93.0441C167.604 93.2935 167.271 93.4931 166.881 93.6427C166.498 93.7841 166.078 93.8547 165.621 93.8547ZM171.812 93.8547C171.354 93.8547 170.951 93.7757 170.602 93.6178C170.261 93.4515 169.995 93.227 169.804 92.9444C169.613 92.6534 169.517 92.3125 169.517 91.9218C169.517 91.556 169.596 91.2276 169.754 90.9366C169.92 90.6456 170.174 90.4004 170.515 90.2008C170.855 90.0013 171.284 89.86 171.799 89.7768L174.144 89.3903V90.5001L172.073 90.8618C171.699 90.9283 171.425 91.0488 171.25 91.2234C171.076 91.3897 170.989 91.6059 170.989 91.8719C170.989 92.1296 171.084 92.3416 171.275 92.5079C171.475 92.6659 171.728 92.7448 172.036 92.7448C172.418 92.7448 172.751 92.6617 173.034 92.4954C173.325 92.3292 173.549 92.1088 173.707 91.8345C173.865 91.5518 173.944 91.2401 173.944 90.8992V89.1658C173.944 88.8332 173.819 88.563 173.57 88.3552C173.329 88.139 173.005 88.031 172.597 88.031C172.223 88.031 171.895 88.1307 171.612 88.3303C171.338 88.5215 171.134 88.7709 171.001 89.0785L169.829 88.4924C169.953 88.1598 170.157 87.8688 170.44 87.6194C170.722 87.3617 171.051 87.1622 171.425 87.0208C171.807 86.8795 172.211 86.8088 172.635 86.8088C173.167 86.8088 173.636 86.9086 174.044 87.1081C174.459 87.3077 174.78 87.5862 175.004 87.9437C175.237 88.2928 175.353 88.7002 175.353 89.1658V93.7051H174.006V92.483L174.293 92.5204C174.135 92.7947 173.932 93.0317 173.682 93.2312C173.441 93.4307 173.163 93.5845 172.847 93.6926C172.539 93.8007 172.194 93.8547 171.812 93.8547ZM179.956 93.8547C179.283 93.8547 178.684 93.7009 178.161 93.3933C177.645 93.0774 177.234 92.6534 176.926 92.1213C176.627 91.5892 176.477 90.9865 176.477 90.3131C176.477 89.648 176.627 89.0494 176.926 88.5173C177.225 87.9852 177.637 87.5695 178.161 87.2703C178.684 86.9626 179.283 86.8088 179.956 86.8088C180.414 86.8088 180.842 86.892 181.241 87.0583C181.64 87.2162 181.985 87.4365 182.276 87.7192C182.575 88.0019 182.796 88.3303 182.937 88.7044L181.702 89.278C181.561 88.9288 181.332 88.6503 181.016 88.4425C180.709 88.2263 180.355 88.1183 179.956 88.1183C179.574 88.1183 179.229 88.2139 178.921 88.4051C178.622 88.588 178.385 88.8499 178.211 89.1907C178.036 89.5233 177.949 89.9015 177.949 90.3255C177.949 90.7495 178.036 91.132 178.211 91.4728C178.385 91.8054 178.622 92.0673 178.921 92.2585C179.229 92.4497 179.574 92.5453 179.956 92.5453C180.364 92.5453 180.717 92.4414 181.016 92.2335C181.324 92.0174 181.553 91.7306 181.702 91.3731L182.937 91.9592C182.804 92.3167 182.588 92.6409 182.288 92.9319C181.997 93.2146 181.652 93.439 181.253 93.6053C180.854 93.7716 180.422 93.8547 179.956 93.8547ZM184.065 93.7051V84.2648H185.474V88.2804L185.25 88.1058C185.416 87.6818 185.682 87.3617 186.048 87.1455C186.413 86.9211 186.837 86.8088 187.32 86.8088C187.818 86.8088 188.259 86.9169 188.642 87.1331C189.024 87.3492 189.323 87.6485 189.539 88.031C189.756 88.4134 189.864 88.8499 189.864 89.3404V93.7051H188.467V89.727C188.467 89.3861 188.4 89.0993 188.267 88.8665C188.143 88.6254 187.968 88.4425 187.744 88.3178C187.519 88.1848 187.261 88.1183 186.97 88.1183C186.688 88.1183 186.43 88.1848 186.197 88.3178C185.973 88.4425 185.794 88.6254 185.661 88.8665C185.536 89.1076 185.474 89.3944 185.474 89.727V93.7051H184.065Z" fill="#1A202C"/>
<path d="M272.001 208.869C274.169 208.869 275.253 208.869 276.117 209.333C276.842 209.723 277.494 210.425 277.83 211.176C278.23 212.071 278.157 213.08 278.01 215.099C277.144 226.977 273.813 238.545 268.23 249.064C267.281 250.852 266.807 251.746 265.992 252.291C265.308 252.749 264.382 252.996 263.561 252.941C262.582 252.874 261.664 252.298 259.828 251.145L256.051 248.773C254.203 247.613 253.279 247.033 252.808 246.29C252.366 245.596 252.18 244.922 252.201 244.099C252.224 243.219 252.764 242.158 253.843 240.034C257.796 232.252 260.233 223.788 261.023 215.096C261.238 212.724 261.346 211.537 261.795 210.78C262.214 210.072 262.73 209.601 263.474 209.247C264.268 208.869 265.359 208.869 267.541 208.869H272.001Z" fill="#1A71F6"/>
<path d="M256.829 255.583C258.583 256.857 259.46 257.494 259.886 258.377C260.244 259.118 260.36 260.069 260.19 260.875C259.988 261.834 259.335 262.608 258.03 264.155C249.902 273.789 239.731 281.533 228.227 286.806C216.722 292.08 204.216 294.731 191.612 294.6C189.588 294.579 188.576 294.568 187.717 294.095C186.997 293.698 186.351 292.99 186.023 292.235C185.632 291.335 185.722 290.255 185.902 288.095L186.273 283.65C186.454 281.476 186.544 280.389 186.987 279.628C187.401 278.917 187.914 278.441 188.654 278.082C189.446 277.698 190.637 277.689 193.019 277.671C202.716 277.598 212.313 275.476 221.171 271.415C230.03 267.355 237.902 261.47 244.287 254.171C245.855 252.378 246.64 251.481 247.447 251.132C248.203 250.806 248.898 250.727 249.707 250.878C250.572 251.039 251.454 251.68 253.22 252.962L256.829 255.583Z" fill="#5CAFFC"/>
<path d="M180.516 287.461C180.189 289.604 180.026 290.675 179.437 291.459C178.943 292.117 178.15 292.657 177.357 292.875C176.412 293.136 175.425 292.911 173.452 292.461C164.853 290.502 156.608 287.228 149.009 282.754C147.265 281.727 146.393 281.214 145.884 280.376C145.456 279.672 145.25 278.736 145.342 277.919C145.451 276.944 146.067 276.052 147.3 274.269L149.836 270.6C151.077 268.805 151.697 267.907 152.459 267.469C153.173 267.058 153.854 266.902 154.675 266.959C155.553 267.021 156.59 267.607 158.664 268.778C164.108 271.853 169.946 274.171 176.015 275.669C178.328 276.24 179.485 276.525 180.165 277.083C180.802 277.604 181.191 278.186 181.428 278.974C181.682 279.816 181.518 280.894 181.189 283.051L180.516 287.461Z" fill="#A1A9FE"/>
<path d="M143.204 271.239C141.86 272.94 141.187 273.791 140.288 274.181C139.532 274.508 138.577 274.585 137.78 274.382C136.829 274.141 136.083 273.457 134.59 272.09C124.187 262.561 116.271 250.587 111.586 237.211C106.212 221.869 105.311 205.316 108.987 189.481C112.663 173.646 120.765 159.183 132.348 147.778C142.447 137.834 154.829 130.572 168.366 126.601C170.308 126.031 171.279 125.746 172.239 125.948C173.044 126.118 173.868 126.608 174.402 127.234C175.038 127.981 175.266 129.04 175.724 131.159L176.665 135.519C177.126 137.652 177.356 138.718 177.154 139.575C176.965 140.376 176.613 140.98 176.01 141.539C175.364 142.137 174.228 142.493 171.954 143.204C161.55 146.46 152.037 152.151 144.227 159.842C134.931 168.995 128.429 180.602 125.479 193.31C122.529 206.017 123.252 219.302 127.565 231.614C131.188 241.959 137.22 251.259 145.126 258.766C146.854 260.406 147.717 261.226 148.033 262.047C148.329 262.815 148.379 263.513 148.195 264.315C147.999 265.173 147.323 266.028 145.97 267.74L143.204 271.239Z" fill="#EB7CA6"/>
<path d="M181.576 130.123C181.278 127.976 181.129 126.902 181.471 125.983C181.757 125.211 182.362 124.468 183.06 124.032C183.892 123.513 184.902 123.447 186.922 123.315C205.326 122.114 223.635 126.884 239.114 136.912C240.812 138.012 241.662 138.563 242.134 139.422C242.531 140.143 242.697 141.087 242.57 141.9C242.419 142.869 241.766 143.733 240.458 145.463L237.767 149.02C236.451 150.76 235.793 151.63 235.012 152.036C234.282 152.415 233.594 152.542 232.777 152.45C231.902 152.351 230.891 151.721 228.869 150.462C217.019 143.083 203.197 139.482 189.253 140.141C186.873 140.254 185.683 140.31 184.872 139.97C184.113 139.652 183.575 139.205 183.123 138.518C182.639 137.783 182.489 136.702 182.189 134.541L181.576 130.123Z" fill="#FFACC8"/>
<path d="M244.641 148.855C246.063 147.219 246.774 146.4 247.691 146.053C248.46 145.761 249.418 145.728 250.205 145.968C251.144 146.253 251.857 146.97 253.285 148.405C266.292 161.48 274.739 178.41 277.363 196.666C277.651 198.669 277.796 199.671 277.459 200.592C277.177 201.365 276.575 202.111 275.879 202.55C275.05 203.074 273.968 203.15 271.806 203.301L267.356 203.614C265.18 203.767 264.092 203.843 263.273 203.522C262.507 203.221 261.959 202.787 261.491 202.11C260.99 201.386 260.8 200.21 260.419 197.858C258.185 184.078 251.809 171.298 242.142 161.227C240.492 159.508 239.667 158.648 239.39 157.813C239.13 157.032 239.113 156.333 239.334 155.54C239.569 154.693 240.285 153.869 241.716 152.222L244.641 148.855Z" fill="#4120A9"/>
<rect x="78.7051" y="328.896" width="10.6383" height="9.35294" rx="4.67647" fill="#EB7CA6"/>
<path d="M100.702 338.117V331.149H101.806V338.117H100.702ZM102.96 338.117V333.057H103.971V334.049L103.849 333.918C103.974 333.6 104.173 333.36 104.448 333.198C104.722 333.029 105.04 332.945 105.402 332.945C105.776 332.945 106.106 333.026 106.393 333.188C106.68 333.35 106.904 333.575 107.066 333.862C107.229 334.148 107.31 334.479 107.31 334.853V338.117H106.262V335.134C106.262 334.878 106.215 334.663 106.122 334.488C106.028 334.307 105.894 334.17 105.72 334.077C105.551 333.977 105.358 333.927 105.14 333.927C104.921 333.927 104.725 333.977 104.55 334.077C104.382 334.17 104.251 334.307 104.158 334.488C104.064 334.669 104.017 334.884 104.017 335.134V338.117H102.96ZM110.124 338.229C109.607 338.229 109.152 338.102 108.759 337.846C108.372 337.59 108.101 337.247 107.945 336.817L108.759 336.434C108.896 336.72 109.083 336.948 109.32 337.116C109.563 337.285 109.831 337.369 110.124 337.369C110.374 337.369 110.576 337.313 110.732 337.201C110.888 337.088 110.966 336.936 110.966 336.742C110.966 336.618 110.932 336.518 110.863 336.443C110.795 336.362 110.707 336.296 110.601 336.247C110.501 336.197 110.399 336.159 110.293 336.134L109.498 335.91C109.061 335.785 108.734 335.598 108.516 335.349C108.304 335.093 108.198 334.797 108.198 334.46C108.198 334.155 108.275 333.89 108.431 333.665C108.587 333.434 108.802 333.257 109.077 333.132C109.351 333.007 109.66 332.945 110.003 332.945C110.464 332.945 110.876 333.06 111.237 333.291C111.599 333.516 111.855 333.83 112.004 334.236L111.19 334.619C111.091 334.376 110.932 334.183 110.713 334.039C110.501 333.896 110.261 333.824 109.993 333.824C109.763 333.824 109.579 333.88 109.441 333.993C109.304 334.099 109.236 334.239 109.236 334.413C109.236 334.532 109.267 334.632 109.329 334.713C109.392 334.788 109.473 334.85 109.572 334.9C109.672 334.943 109.775 334.981 109.881 335.012L110.704 335.255C111.122 335.374 111.443 335.561 111.667 335.816C111.892 336.066 112.004 336.365 112.004 336.714C112.004 337.014 111.923 337.279 111.761 337.509C111.605 337.734 111.387 337.911 111.106 338.042C110.826 338.167 110.498 338.229 110.124 338.229ZM115.041 338.173C114.511 338.173 114.1 338.024 113.807 337.724C113.514 337.425 113.367 337.004 113.367 336.462V334.011H112.479V333.057H112.619C112.856 333.057 113.04 332.989 113.171 332.851C113.302 332.714 113.367 332.527 113.367 332.29V331.897H114.424V333.057H115.574V334.011H114.424V336.415C114.424 336.59 114.452 336.739 114.508 336.864C114.564 336.982 114.655 337.076 114.779 337.144C114.904 337.207 115.066 337.238 115.266 337.238C115.316 337.238 115.372 337.235 115.434 337.229C115.496 337.222 115.556 337.216 115.612 337.21V338.117C115.525 338.13 115.428 338.142 115.322 338.155C115.216 338.167 115.122 338.173 115.041 338.173ZM117.926 338.229C117.583 338.229 117.28 338.17 117.018 338.052C116.763 337.927 116.563 337.759 116.42 337.547C116.276 337.328 116.205 337.073 116.205 336.78C116.205 336.505 116.264 336.259 116.382 336.041C116.507 335.823 116.697 335.639 116.953 335.489C117.209 335.339 117.53 335.233 117.916 335.171L119.675 334.881V335.713L118.122 335.985C117.841 336.035 117.636 336.125 117.505 336.256C117.374 336.381 117.308 336.543 117.308 336.742C117.308 336.936 117.38 337.095 117.523 337.219C117.673 337.338 117.863 337.397 118.094 337.397C118.381 337.397 118.63 337.335 118.842 337.21C119.06 337.085 119.229 336.92 119.347 336.714C119.466 336.502 119.525 336.268 119.525 336.013V334.713C119.525 334.463 119.431 334.261 119.244 334.105C119.064 333.943 118.82 333.862 118.515 333.862C118.234 333.862 117.988 333.936 117.776 334.086C117.57 334.229 117.417 334.417 117.318 334.647L116.439 334.208C116.532 333.958 116.685 333.74 116.897 333.553C117.109 333.36 117.355 333.21 117.636 333.104C117.923 332.998 118.225 332.945 118.543 332.945C118.942 332.945 119.294 333.02 119.6 333.169C119.912 333.319 120.152 333.528 120.32 333.796C120.495 334.058 120.582 334.364 120.582 334.713V338.117H119.572V337.201L119.787 337.229C119.668 337.434 119.516 337.612 119.329 337.762C119.148 337.911 118.939 338.027 118.702 338.108C118.471 338.189 118.212 338.229 117.926 338.229ZM124.072 340.175C123.704 340.175 123.364 340.116 123.052 339.997C122.74 339.879 122.472 339.713 122.248 339.501C122.023 339.296 121.855 339.052 121.743 338.772L122.716 338.37C122.803 338.607 122.962 338.803 123.193 338.959C123.429 339.115 123.719 339.193 124.062 339.193C124.33 339.193 124.571 339.14 124.783 339.034C124.995 338.934 125.163 338.784 125.288 338.585C125.412 338.392 125.475 338.158 125.475 337.883V336.742L125.662 336.957C125.487 337.282 125.244 337.528 124.932 337.696C124.627 337.865 124.281 337.949 123.894 337.949C123.426 337.949 123.005 337.84 122.631 337.621C122.257 337.403 121.961 337.104 121.743 336.724C121.531 336.343 121.425 335.916 121.425 335.442C121.425 334.962 121.531 334.535 121.743 334.161C121.961 333.787 122.254 333.491 122.622 333.272C122.99 333.054 123.411 332.945 123.885 332.945C124.271 332.945 124.614 333.029 124.913 333.198C125.219 333.36 125.468 333.597 125.662 333.908L125.521 334.17V333.057H126.522V337.883C126.522 338.32 126.416 338.71 126.204 339.052C125.998 339.402 125.712 339.676 125.344 339.876C124.976 340.075 124.552 340.175 124.072 340.175ZM124.016 336.967C124.296 336.967 124.546 336.901 124.764 336.77C124.982 336.633 125.154 336.452 125.278 336.228C125.409 335.997 125.475 335.738 125.475 335.452C125.475 335.165 125.409 334.906 125.278 334.675C125.147 334.445 124.973 334.264 124.754 334.133C124.536 333.996 124.29 333.927 124.016 333.927C123.729 333.927 123.473 333.996 123.249 334.133C123.024 334.264 122.846 334.445 122.716 334.675C122.591 334.9 122.528 335.159 122.528 335.452C122.528 335.732 122.591 335.988 122.716 336.219C122.846 336.449 123.024 336.633 123.249 336.77C123.473 336.901 123.729 336.967 124.016 336.967ZM127.572 338.117V333.057H128.582V334.077L128.489 333.927C128.601 333.597 128.782 333.36 129.031 333.216C129.281 333.067 129.58 332.992 129.929 332.992H130.238V333.955H129.798C129.449 333.955 129.165 334.064 128.947 334.282C128.735 334.494 128.629 334.8 128.629 335.199V338.117H127.572ZM132.289 338.229C131.946 338.229 131.644 338.17 131.382 338.052C131.126 337.927 130.927 337.759 130.783 337.547C130.64 337.328 130.568 337.073 130.568 336.78C130.568 336.505 130.627 336.259 130.746 336.041C130.87 335.823 131.061 335.639 131.316 335.489C131.572 335.339 131.893 335.233 132.28 335.171L134.038 334.881V335.713L132.485 335.985C132.205 336.035 131.999 336.125 131.868 336.256C131.737 336.381 131.672 336.543 131.672 336.742C131.672 336.936 131.743 337.095 131.887 337.219C132.036 337.338 132.227 337.397 132.457 337.397C132.744 337.397 132.994 337.335 133.206 337.21C133.424 337.085 133.592 336.92 133.711 336.714C133.829 336.502 133.888 336.268 133.888 336.013V334.713C133.888 334.463 133.795 334.261 133.608 334.105C133.427 333.943 133.184 333.862 132.878 333.862C132.598 333.862 132.351 333.936 132.139 334.086C131.934 334.229 131.781 334.417 131.681 334.647L130.802 334.208C130.895 333.958 131.048 333.74 131.26 333.553C131.472 333.36 131.718 333.21 131.999 333.104C132.286 332.998 132.588 332.945 132.906 332.945C133.305 332.945 133.658 333.02 133.963 333.169C134.275 333.319 134.515 333.528 134.683 333.796C134.858 334.058 134.945 334.364 134.945 334.713V338.117H133.935V337.201L134.15 337.229C134.032 337.434 133.879 337.612 133.692 337.762C133.511 337.911 133.302 338.027 133.065 338.108C132.835 338.189 132.576 338.229 132.289 338.229ZM135.994 338.117V333.057H137.004V334.152L136.873 333.983C136.979 333.64 137.172 333.381 137.453 333.207C137.734 333.032 138.055 332.945 138.416 332.945C138.822 332.945 139.18 333.054 139.492 333.272C139.81 333.484 140.022 333.768 140.128 334.123L139.829 334.152C139.978 333.746 140.206 333.444 140.511 333.244C140.823 333.045 141.179 332.945 141.578 332.945C141.927 332.945 142.242 333.026 142.522 333.188C142.809 333.35 143.037 333.575 143.205 333.862C143.373 334.148 143.458 334.476 143.458 334.844V338.117H142.401V335.134C142.401 334.878 142.354 334.663 142.26 334.488C142.173 334.307 142.048 334.17 141.886 334.077C141.73 333.977 141.546 333.927 141.334 333.927C141.122 333.927 140.935 333.977 140.773 334.077C140.611 334.17 140.483 334.307 140.39 334.488C140.296 334.669 140.249 334.884 140.249 335.134V338.117H139.202V335.134C139.202 334.878 139.155 334.663 139.062 334.488C138.974 334.307 138.85 334.17 138.688 334.077C138.532 333.977 138.345 333.927 138.126 333.927C137.914 333.927 137.727 333.977 137.565 334.077C137.403 334.17 137.275 334.307 137.182 334.488C137.094 334.669 137.051 334.884 137.051 335.134V338.117H135.994Z" fill="#596780"/>
<path d="M268.314 337.91C267.746 337.91 267.248 337.801 266.819 337.583C266.397 337.357 266.069 337.059 265.837 336.688C265.604 336.31 265.488 335.892 265.488 335.433C265.488 334.91 265.629 334.458 265.913 334.08C266.204 333.695 266.611 333.415 267.135 333.24L267.081 333.567C266.695 333.422 266.39 333.178 266.164 332.836C265.946 332.487 265.837 332.105 265.837 331.691C265.837 331.276 265.942 330.905 266.153 330.578C266.371 330.25 266.666 329.992 267.037 329.803C267.415 329.614 267.841 329.519 268.314 329.519C268.794 329.519 269.219 329.614 269.59 329.803C269.961 329.985 270.252 330.239 270.463 330.567C270.682 330.894 270.791 331.269 270.791 331.691C270.791 332.12 270.678 332.505 270.452 332.847C270.234 333.182 269.936 333.422 269.558 333.567L269.503 333.24C270.027 333.422 270.434 333.702 270.725 334.08C271.016 334.458 271.162 334.91 271.162 335.433C271.162 335.892 271.042 336.31 270.802 336.688C270.569 337.059 270.238 337.357 269.809 337.583C269.379 337.801 268.881 337.91 268.314 337.91ZM268.314 336.819C268.626 336.819 268.899 336.761 269.132 336.644C269.365 336.521 269.547 336.353 269.678 336.143C269.809 335.932 269.874 335.684 269.874 335.401C269.874 335.117 269.809 334.869 269.678 334.659C269.547 334.448 269.365 334.284 269.132 334.168C268.899 334.051 268.626 333.993 268.314 333.993C268.008 333.993 267.739 334.051 267.506 334.168C267.273 334.284 267.092 334.448 266.961 334.659C266.83 334.869 266.764 335.117 266.764 335.401C266.764 335.684 266.83 335.932 266.961 336.143C267.092 336.353 267.273 336.521 267.506 336.644C267.739 336.761 268.008 336.819 268.314 336.819ZM268.314 332.902C268.546 332.902 268.75 332.854 268.925 332.76C269.107 332.658 269.248 332.52 269.35 332.345C269.452 332.171 269.503 331.974 269.503 331.756C269.503 331.53 269.452 331.334 269.35 331.167C269.248 330.992 269.107 330.858 268.925 330.763C268.75 330.661 268.546 330.61 268.314 330.61C268.088 330.61 267.884 330.661 267.703 330.763C267.521 330.858 267.379 330.992 267.277 331.167C267.175 331.334 267.124 331.53 267.124 331.756C267.124 331.974 267.175 332.171 267.277 332.345C267.379 332.52 267.521 332.658 267.703 332.76C267.884 332.854 268.088 332.902 268.314 332.902ZM275.459 337.91C274.812 337.91 274.244 337.736 273.757 337.386C273.27 337.03 272.888 336.539 272.611 335.913C272.342 335.281 272.208 334.546 272.208 333.709C272.208 332.865 272.342 332.131 272.611 331.505C272.888 330.879 273.266 330.392 273.746 330.043C274.234 329.694 274.801 329.519 275.448 329.519C276.096 329.519 276.66 329.694 277.14 330.043C277.627 330.392 278.005 330.883 278.275 331.516C278.551 332.142 278.689 332.873 278.689 333.709C278.689 334.546 278.555 335.281 278.285 335.913C278.016 336.539 277.638 337.03 277.151 337.386C276.671 337.736 276.107 337.91 275.459 337.91ZM275.459 336.732C275.859 336.732 276.205 336.608 276.496 336.361C276.787 336.113 277.012 335.764 277.172 335.313C277.333 334.862 277.413 334.328 277.413 333.709C277.413 333.091 277.333 332.556 277.172 332.105C277.012 331.654 276.787 331.305 276.496 331.058C276.205 330.81 275.856 330.687 275.448 330.687C275.048 330.687 274.703 330.81 274.412 331.058C274.121 331.305 273.895 331.654 273.735 332.105C273.575 332.556 273.495 333.091 273.495 333.709C273.495 334.32 273.575 334.855 273.735 335.313C273.895 335.764 274.121 336.113 274.412 336.361C274.71 336.608 275.059 336.732 275.459 336.732ZM283.052 337.91C282.405 337.91 281.837 337.736 281.35 337.386C280.862 337.03 280.48 336.539 280.204 335.913C279.935 335.281 279.8 334.546 279.8 333.709C279.8 332.865 279.935 332.131 280.204 331.505C280.48 330.879 280.859 330.392 281.339 330.043C281.826 329.694 282.394 329.519 283.041 329.519C283.688 329.519 284.252 329.694 284.732 330.043C285.22 330.392 285.598 330.883 285.867 331.516C286.144 332.142 286.282 332.873 286.282 333.709C286.282 334.546 286.147 335.281 285.878 335.913C285.609 336.539 285.231 337.03 284.743 337.386C284.263 337.736 283.699 337.91 283.052 337.91ZM283.052 336.732C283.452 336.732 283.798 336.608 284.089 336.361C284.38 336.113 284.605 335.764 284.765 335.313C284.925 334.862 285.005 334.328 285.005 333.709C285.005 333.091 284.925 332.556 284.765 332.105C284.605 331.654 284.38 331.305 284.089 331.058C283.798 330.81 283.448 330.687 283.041 330.687C282.641 330.687 282.295 330.81 282.004 331.058C281.713 331.305 281.488 331.654 281.328 332.105C281.168 332.556 281.088 333.091 281.088 333.709C281.088 334.32 281.168 334.855 281.328 335.313C281.488 335.764 281.713 336.113 282.004 336.361C282.303 336.608 282.652 336.732 283.052 336.732ZM290.645 337.91C289.997 337.91 289.43 337.736 288.942 337.386C288.455 337.03 288.073 336.539 287.797 335.913C287.527 335.281 287.393 334.546 287.393 333.709C287.393 332.865 287.527 332.131 287.797 331.505C288.073 330.879 288.451 330.392 288.931 330.043C289.419 329.694 289.986 329.519 290.634 329.519C291.281 329.519 291.845 329.694 292.325 330.043C292.812 330.392 293.191 330.883 293.46 331.516C293.736 332.142 293.874 332.873 293.874 333.709C293.874 334.546 293.74 335.281 293.471 335.913C293.202 336.539 292.823 337.03 292.336 337.386C291.856 337.736 291.292 337.91 290.645 337.91ZM290.645 336.732C291.045 336.732 291.39 336.608 291.681 336.361C291.972 336.113 292.198 335.764 292.358 335.313C292.518 334.862 292.598 334.328 292.598 333.709C292.598 333.091 292.518 332.556 292.358 332.105C292.198 331.654 291.972 331.305 291.681 331.058C291.39 330.81 291.041 330.687 290.634 330.687C290.234 330.687 289.888 330.81 289.597 331.058C289.306 331.305 289.081 331.654 288.921 332.105C288.76 332.556 288.68 333.091 288.68 333.709C288.68 334.32 288.76 334.855 288.921 335.313C289.081 335.764 289.306 336.113 289.597 336.361C289.895 336.608 290.244 336.732 290.645 336.732Z" fill="#1A202C"/>
<path d="M148.94 226.416C148.054 226.416 147.231 226.254 146.471 225.93C145.722 225.605 145.074 225.156 144.525 224.583C143.989 223.997 143.596 223.317 143.347 222.544L145.46 221.627C145.797 222.425 146.284 223.055 146.92 223.516C147.556 223.965 148.273 224.19 149.071 224.19C149.52 224.19 149.906 224.121 150.23 223.984C150.567 223.834 150.823 223.635 150.997 223.386C151.184 223.136 151.278 222.837 151.278 222.488C151.278 222.076 151.153 221.739 150.904 221.478C150.667 221.203 150.305 220.991 149.819 220.842L147.144 219.981C146.059 219.644 145.242 219.139 144.694 218.466C144.145 217.792 143.87 217.001 143.87 216.09C143.87 215.292 144.064 214.588 144.45 213.976C144.849 213.365 145.398 212.892 146.096 212.555C146.807 212.206 147.618 212.031 148.528 212.031C149.364 212.031 150.131 212.181 150.829 212.48C151.527 212.767 152.126 213.172 152.625 213.696C153.136 214.207 153.516 214.812 153.766 215.51L151.671 216.446C151.396 215.747 150.985 215.211 150.436 214.837C149.888 214.45 149.252 214.257 148.528 214.257C148.104 214.257 147.73 214.332 147.406 214.482C147.082 214.619 146.826 214.818 146.639 215.08C146.464 215.33 146.377 215.629 146.377 215.978C146.377 216.365 146.502 216.708 146.751 217.007C147.001 217.294 147.381 217.518 147.892 217.68L150.455 218.485C151.565 218.846 152.394 219.345 152.943 219.981C153.504 220.617 153.785 221.403 153.785 222.338C153.785 223.136 153.579 223.841 153.167 224.452C152.756 225.063 152.188 225.543 151.465 225.892C150.742 226.241 149.9 226.416 148.94 226.416ZM148.042 228.062V210.385H149.632V228.062H148.042ZM157.403 226.191V214.425H154.71V212.256H159.947V226.191H157.403ZM162.909 226.191L167.642 220.093L168.072 220.542C167.885 220.679 167.704 220.792 167.529 220.879C167.355 220.966 167.168 221.029 166.968 221.066C166.769 221.103 166.557 221.122 166.332 221.122C165.484 221.122 164.73 220.929 164.069 220.542C163.408 220.156 162.884 219.632 162.497 218.971C162.123 218.298 161.936 217.537 161.936 216.689C161.936 215.791 162.142 214.993 162.554 214.294C162.978 213.596 163.551 213.047 164.275 212.648C165.01 212.237 165.846 212.031 166.781 212.031C167.729 212.031 168.564 212.231 169.288 212.63C170.011 213.029 170.578 213.577 170.99 214.276C171.414 214.962 171.626 215.754 171.626 216.651C171.626 217.1 171.576 217.549 171.476 217.998C171.377 218.447 171.196 218.927 170.934 219.439C170.684 219.937 170.323 220.505 169.849 221.141L165.958 226.191H162.909ZM166.781 218.99C167.218 218.99 167.604 218.896 167.941 218.709C168.29 218.51 168.564 218.235 168.764 217.886C168.963 217.524 169.063 217.119 169.063 216.67C169.063 216.196 168.957 215.785 168.745 215.436C168.546 215.086 168.278 214.812 167.941 214.612C167.604 214.413 167.218 214.313 166.781 214.313C166.357 214.313 165.971 214.413 165.621 214.612C165.272 214.812 164.992 215.086 164.78 215.436C164.58 215.785 164.48 216.196 164.48 216.67C164.48 217.119 164.58 217.524 164.78 217.886C164.992 218.235 165.272 218.51 165.621 218.709C165.971 218.896 166.357 218.99 166.781 218.99ZM173.13 229.11V227.894C173.541 227.794 173.872 227.601 174.121 227.314C174.383 227.039 174.545 226.665 174.607 226.191H173.504V223.573H175.973V225.181C175.973 226.279 175.73 227.158 175.243 227.819C174.769 228.48 174.065 228.91 173.13 229.11ZM178.674 226.191L184.473 214.407H177.907V212.256H187.148V214.407L181.48 226.191H178.674ZM191.933 226.416C190.985 226.416 190.143 226.216 189.408 225.817C188.684 225.406 188.117 224.857 187.705 224.171C187.294 223.473 187.088 222.681 187.088 221.796C187.088 221.347 187.132 220.898 187.219 220.449C187.319 220 187.493 219.52 187.743 219.008C188.005 218.497 188.379 217.93 188.865 217.306L192.756 212.256H195.786L191.054 218.335L190.642 217.886C190.817 217.749 190.998 217.643 191.185 217.568C191.372 217.481 191.559 217.418 191.746 217.381C191.945 217.344 192.151 217.325 192.363 217.325C193.211 217.325 193.966 217.518 194.627 217.905C195.287 218.291 195.805 218.821 196.179 219.495C196.566 220.156 196.759 220.904 196.759 221.739C196.759 222.637 196.553 223.442 196.142 224.152C195.73 224.851 195.157 225.406 194.421 225.817C193.697 226.216 192.868 226.416 191.933 226.416ZM191.933 224.115C192.357 224.115 192.737 224.022 193.074 223.834C193.423 223.635 193.697 223.354 193.897 222.993C194.109 222.631 194.215 222.226 194.215 221.777C194.215 221.303 194.109 220.898 193.897 220.561C193.697 220.212 193.429 219.937 193.093 219.738C192.756 219.538 192.369 219.439 191.933 219.439C191.509 219.439 191.122 219.538 190.773 219.738C190.424 219.937 190.143 220.212 189.931 220.561C189.732 220.898 189.632 221.303 189.632 221.777C189.632 222.226 189.732 222.631 189.931 222.993C190.143 223.354 190.424 223.635 190.773 223.834C191.122 224.022 191.509 224.115 191.933 224.115ZM203.597 226.416C202.487 226.416 201.515 226.117 200.679 225.518C199.844 224.919 199.189 224.078 198.715 222.993C198.254 221.908 198.023 220.648 198.023 219.214C198.023 217.768 198.254 216.508 198.715 215.436C199.176 214.363 199.825 213.528 200.66 212.929C201.496 212.33 202.469 212.031 203.578 212.031C204.713 212.031 205.692 212.33 206.515 212.929C207.351 213.528 208.006 214.369 208.479 215.454C208.953 216.527 209.19 217.78 209.19 219.214C209.19 220.648 208.953 221.908 208.479 222.993C208.018 224.065 207.37 224.907 206.534 225.518C205.698 226.117 204.72 226.416 203.597 226.416ZM203.616 224.096C204.252 224.096 204.794 223.903 205.243 223.516C205.692 223.117 206.035 222.556 206.272 221.833C206.522 221.097 206.646 220.224 206.646 219.214C206.646 218.204 206.522 217.337 206.272 216.614C206.035 215.878 205.686 215.317 205.225 214.93C204.776 214.544 204.227 214.351 203.578 214.351C202.955 214.351 202.419 214.544 201.97 214.93C201.521 215.317 201.172 215.878 200.922 216.614C200.685 217.337 200.567 218.204 200.567 219.214C200.567 220.212 200.685 221.078 200.922 221.814C201.172 222.538 201.521 223.099 201.97 223.498C202.431 223.897 202.98 224.096 203.616 224.096ZM211.585 229.11V227.894C211.996 227.794 212.327 227.601 212.576 227.314C212.838 227.039 213 226.665 213.063 226.191H211.959V223.573H214.428V225.181C214.428 226.279 214.185 227.158 213.699 227.819C213.225 228.48 212.52 228.91 211.585 229.11ZM222.405 226.416C221.295 226.416 220.322 226.117 219.487 225.518C218.651 224.919 217.996 224.078 217.522 222.993C217.061 221.908 216.83 220.648 216.83 219.214C216.83 217.768 217.061 216.508 217.522 215.436C217.984 214.363 218.632 213.528 219.468 212.929C220.303 212.33 221.276 212.031 222.386 212.031C223.521 212.031 224.5 212.33 225.323 212.929C226.158 213.528 226.813 214.369 227.287 215.454C227.761 216.527 227.998 217.78 227.998 219.214C227.998 220.648 227.761 221.908 227.287 222.993C226.825 224.065 226.177 224.907 225.341 225.518C224.506 226.117 223.527 226.416 222.405 226.416ZM222.423 224.096C223.059 224.096 223.602 223.903 224.051 223.516C224.5 223.117 224.843 222.556 225.08 221.833C225.329 221.097 225.454 220.224 225.454 219.214C225.454 218.204 225.329 217.337 225.08 216.614C224.843 215.878 224.493 215.317 224.032 214.93C223.583 214.544 223.034 214.351 222.386 214.351C221.762 214.351 221.226 214.544 220.777 214.93C220.328 215.317 219.979 215.878 219.73 216.614C219.493 217.337 219.374 218.204 219.374 219.214C219.374 220.212 219.493 221.078 219.73 221.814C219.979 222.538 220.328 223.099 220.777 223.498C221.239 223.897 221.787 224.096 222.423 224.096ZM235.087 226.416C233.978 226.416 233.005 226.117 232.169 225.518C231.334 224.919 230.679 224.078 230.205 222.993C229.744 221.908 229.513 220.648 229.513 219.214C229.513 217.768 229.744 216.508 230.205 215.436C230.667 214.363 231.315 213.528 232.151 212.929C232.986 212.33 233.959 212.031 235.069 212.031C236.204 212.031 237.182 212.33 238.006 212.929C238.841 213.528 239.496 214.369 239.97 215.454C240.444 216.527 240.68 217.78 240.68 219.214C240.68 220.648 240.444 221.908 239.97 222.993C239.508 224.065 238.86 224.907 238.024 225.518C237.189 226.117 236.21 226.416 235.087 226.416ZM235.106 224.096C235.742 224.096 236.285 223.903 236.734 223.516C237.182 223.117 237.525 222.556 237.762 221.833C238.012 221.097 238.136 220.224 238.136 219.214C238.136 218.204 238.012 217.337 237.762 216.614C237.525 215.878 237.176 215.317 236.715 214.93C236.266 214.544 235.717 214.351 235.069 214.351C234.445 214.351 233.909 214.544 233.46 214.93C233.011 215.317 232.662 215.878 232.412 216.614C232.176 217.337 232.057 218.204 232.057 219.214C232.057 220.212 232.176 221.078 232.412 221.814C232.662 222.538 233.011 223.099 233.46 223.498C233.921 223.897 234.47 224.096 235.106 224.096Z" fill="#1A202C"/>
<path d="M153.642 196.837C153.067 196.837 152.529 196.735 152.027 196.531C151.525 196.321 151.085 196.026 150.707 195.648C150.336 195.269 150.045 194.826 149.834 194.316C149.623 193.8 149.517 193.24 149.517 192.636C149.517 192.025 149.623 191.465 149.834 190.956C150.045 190.446 150.336 190.003 150.707 189.624C151.085 189.246 151.521 188.955 152.016 188.751C152.518 188.548 153.06 188.446 153.642 188.446C154.224 188.446 154.762 188.551 155.257 188.762C155.759 188.966 156.195 189.257 156.566 189.635C156.944 190.006 157.239 190.446 157.45 190.956C157.668 191.465 157.777 192.025 157.777 192.636C157.777 193.24 157.668 193.8 157.45 194.316C157.239 194.826 156.944 195.269 156.566 195.648C156.195 196.026 155.759 196.321 155.257 196.531C154.762 196.735 154.224 196.837 153.642 196.837ZM153.642 195.844C154.093 195.844 154.504 195.764 154.875 195.604C155.246 195.437 155.566 195.208 155.835 194.917C156.112 194.618 156.322 194.276 156.468 193.891C156.621 193.498 156.697 193.08 156.697 192.636C156.697 192.192 156.621 191.778 156.468 191.392C156.322 191.006 156.112 190.668 155.835 190.377C155.566 190.079 155.246 189.85 154.875 189.69C154.504 189.522 154.093 189.439 153.642 189.439C153.198 189.439 152.791 189.522 152.42 189.69C152.049 189.85 151.725 190.079 151.449 190.377C151.179 190.668 150.968 191.006 150.816 191.392C150.663 191.778 150.587 192.192 150.587 192.636C150.587 193.08 150.663 193.498 150.816 193.891C150.968 194.276 151.179 194.618 151.449 194.917C151.725 195.208 152.049 195.437 152.42 195.604C152.791 195.764 153.198 195.844 153.642 195.844ZM160.636 196.706L158.333 190.825H159.468L161.312 195.8H160.919L162.774 190.825H163.909L161.596 196.706H160.636ZM167.198 196.837C166.631 196.837 166.125 196.702 165.682 196.433C165.238 196.164 164.889 195.797 164.634 195.331C164.379 194.858 164.252 194.331 164.252 193.749C164.252 193.16 164.376 192.636 164.623 192.178C164.878 191.719 165.22 191.359 165.649 191.097C166.085 190.828 166.573 190.694 167.111 190.694C167.547 190.694 167.933 190.774 168.268 190.934C168.61 191.086 168.897 191.297 169.13 191.567C169.37 191.828 169.552 192.13 169.675 192.472C169.806 192.807 169.872 193.156 169.872 193.52C169.872 193.6 169.864 193.691 169.85 193.793C169.843 193.887 169.832 193.978 169.817 194.065H164.994V193.192H169.228L168.748 193.585C168.813 193.207 168.777 192.869 168.639 192.57C168.5 192.272 168.297 192.036 168.028 191.861C167.758 191.687 167.453 191.599 167.111 191.599C166.769 191.599 166.456 191.687 166.173 191.861C165.889 192.036 165.667 192.287 165.507 192.614C165.354 192.934 165.292 193.316 165.321 193.76C165.292 194.189 165.358 194.567 165.518 194.895C165.685 195.215 165.918 195.466 166.216 195.648C166.522 195.822 166.853 195.909 167.209 195.909C167.602 195.909 167.933 195.819 168.202 195.637C168.471 195.455 168.69 195.222 168.857 194.938L169.708 195.375C169.592 195.644 169.41 195.891 169.162 196.117C168.922 196.335 168.635 196.51 168.3 196.641C167.973 196.772 167.606 196.837 167.198 196.837ZM170.977 196.706V190.825H171.97V191.905L171.86 191.752C171.999 191.417 172.21 191.17 172.493 191.01C172.777 190.843 173.123 190.759 173.53 190.759H173.89V191.719H173.377C172.962 191.719 172.628 191.85 172.373 192.112C172.119 192.367 171.991 192.731 171.991 193.203V196.706H170.977ZM176.297 196.837C175.912 196.837 175.57 196.768 175.272 196.63C174.981 196.484 174.751 196.288 174.584 196.04C174.417 195.786 174.333 195.495 174.333 195.167C174.333 194.855 174.399 194.575 174.53 194.327C174.668 194.073 174.879 193.858 175.162 193.683C175.453 193.509 175.817 193.385 176.254 193.312L178.436 192.952V193.804L176.483 194.131C176.104 194.196 175.828 194.316 175.653 194.491C175.486 194.666 175.402 194.88 175.402 195.135C175.402 195.375 175.497 195.575 175.686 195.735C175.883 195.895 176.126 195.975 176.417 195.975C176.788 195.975 177.108 195.899 177.377 195.746C177.654 195.586 177.869 195.371 178.021 195.102C178.181 194.833 178.261 194.535 178.261 194.207V192.712C178.261 192.392 178.141 192.134 177.901 191.938C177.668 191.734 177.359 191.632 176.974 191.632C176.639 191.632 176.341 191.719 176.079 191.894C175.824 192.061 175.635 192.287 175.512 192.57L174.628 192.112C174.737 191.843 174.911 191.603 175.151 191.392C175.392 191.174 175.672 191.003 175.992 190.879C176.312 190.756 176.646 190.694 176.996 190.694C177.447 190.694 177.843 190.781 178.185 190.956C178.527 191.123 178.792 191.359 178.982 191.665C179.178 191.963 179.276 192.312 179.276 192.712V196.706H178.283V195.593L178.469 195.659C178.345 195.891 178.178 196.095 177.967 196.27C177.756 196.444 177.508 196.582 177.225 196.684C176.941 196.786 176.632 196.837 176.297 196.837ZM180.631 196.706V188.446H181.646V196.706H180.631ZM183.002 196.706V188.446H184.017V196.706H183.002ZM189.955 196.837C189.438 196.837 188.966 196.742 188.536 196.553C188.107 196.357 187.744 196.091 187.445 195.757C187.147 195.422 186.932 195.047 186.801 194.633L187.729 194.251C187.925 194.775 188.216 195.178 188.602 195.462C188.995 195.739 189.453 195.877 189.977 195.877C190.297 195.877 190.577 195.826 190.817 195.724C191.057 195.622 191.243 195.48 191.374 195.298C191.512 195.109 191.581 194.891 191.581 194.644C191.581 194.302 191.483 194.033 191.286 193.836C191.097 193.633 190.817 193.48 190.446 193.378L188.951 192.92C188.362 192.738 187.911 192.45 187.598 192.058C187.285 191.665 187.129 191.214 187.129 190.705C187.129 190.261 187.234 189.872 187.445 189.537C187.664 189.195 187.962 188.93 188.34 188.74C188.726 188.544 189.162 188.446 189.649 188.446C190.137 188.446 190.577 188.533 190.97 188.708C191.37 188.882 191.708 189.119 191.985 189.417C192.261 189.708 192.465 190.043 192.596 190.421L191.679 190.803C191.504 190.344 191.243 189.999 190.893 189.766C190.544 189.526 190.133 189.406 189.66 189.406C189.369 189.406 189.111 189.457 188.886 189.559C188.667 189.653 188.496 189.795 188.373 189.984C188.256 190.166 188.198 190.385 188.198 190.639C188.198 190.937 188.293 191.203 188.482 191.436C188.671 191.668 188.958 191.847 189.344 191.97L190.708 192.374C191.348 192.57 191.832 192.851 192.159 193.214C192.487 193.578 192.65 194.029 192.65 194.567C192.65 195.011 192.534 195.404 192.301 195.746C192.076 196.088 191.759 196.357 191.352 196.553C190.952 196.742 190.486 196.837 189.955 196.837ZM193.878 198.888V190.825H194.871V192.09L194.74 191.839C194.958 191.49 195.256 191.214 195.634 191.01C196.013 190.799 196.445 190.694 196.933 190.694C197.486 190.694 197.98 190.828 198.417 191.097C198.861 191.367 199.21 191.734 199.464 192.199C199.719 192.658 199.846 193.182 199.846 193.771C199.846 194.345 199.719 194.866 199.464 195.331C199.21 195.797 198.861 196.164 198.417 196.433C197.98 196.702 197.482 196.837 196.922 196.837C196.449 196.837 196.016 196.732 195.623 196.521C195.238 196.31 194.94 196.011 194.729 195.626L194.892 195.451V198.888H193.878ZM196.846 195.855C197.217 195.855 197.548 195.764 197.839 195.582C198.13 195.4 198.355 195.153 198.515 194.84C198.682 194.52 198.766 194.164 198.766 193.771C198.766 193.363 198.682 193.007 198.515 192.701C198.355 192.389 198.13 192.141 197.839 191.959C197.548 191.77 197.217 191.676 196.846 191.676C196.475 191.676 196.14 191.767 195.842 191.949C195.551 192.13 195.318 192.381 195.143 192.701C194.976 193.014 194.892 193.371 194.892 193.771C194.892 194.164 194.976 194.52 195.143 194.84C195.318 195.153 195.551 195.4 195.842 195.582C196.14 195.764 196.475 195.855 196.846 195.855ZM203.665 196.837C203.097 196.837 202.592 196.702 202.148 196.433C201.704 196.164 201.355 195.797 201.101 195.331C200.846 194.858 200.719 194.331 200.719 193.749C200.719 193.16 200.842 192.636 201.09 192.178C201.344 191.719 201.686 191.359 202.115 191.097C202.552 190.828 203.039 190.694 203.578 190.694C204.014 190.694 204.4 190.774 204.734 190.934C205.076 191.086 205.363 191.297 205.596 191.567C205.836 191.828 206.018 192.13 206.142 192.472C206.273 192.807 206.338 193.156 206.338 193.52C206.338 193.6 206.331 193.691 206.316 193.793C206.309 193.887 206.298 193.978 206.284 194.065H201.461V193.192H205.694L205.214 193.585C205.28 193.207 205.243 192.869 205.105 192.57C204.967 192.272 204.763 192.036 204.494 191.861C204.225 191.687 203.919 191.599 203.578 191.599C203.236 191.599 202.923 191.687 202.639 191.861C202.355 192.036 202.134 192.287 201.974 192.614C201.821 192.934 201.759 193.316 201.788 193.76C201.759 194.189 201.824 194.567 201.984 194.895C202.152 195.215 202.385 195.466 202.683 195.648C202.988 195.822 203.319 195.909 203.676 195.909C204.069 195.909 204.4 195.819 204.669 195.637C204.938 195.455 205.156 195.222 205.323 194.938L206.175 195.375C206.058 195.644 205.876 195.891 205.629 196.117C205.389 196.335 205.102 196.51 204.767 196.641C204.44 196.772 204.072 196.837 203.665 196.837ZM207.443 196.706V190.825H208.436V191.97L208.272 191.872C208.418 191.501 208.651 191.214 208.971 191.01C209.298 190.799 209.68 190.694 210.117 190.694C210.538 190.694 210.913 190.788 211.24 190.977C211.575 191.167 211.837 191.428 212.026 191.763C212.222 192.098 212.321 192.476 212.321 192.898V196.706H211.295V193.225C211.295 192.898 211.237 192.621 211.12 192.396C211.004 192.17 210.837 191.996 210.618 191.872C210.407 191.741 210.164 191.676 209.887 191.676C209.611 191.676 209.364 191.741 209.145 191.872C208.934 191.996 208.767 192.174 208.643 192.407C208.52 192.632 208.458 192.905 208.458 193.225V196.706H207.443ZM216.228 196.837C215.675 196.837 215.177 196.702 214.733 196.433C214.297 196.164 213.951 195.797 213.696 195.331C213.442 194.866 213.315 194.345 213.315 193.771C213.315 193.182 213.442 192.658 213.696 192.199C213.951 191.734 214.297 191.367 214.733 191.097C215.177 190.828 215.675 190.694 216.228 190.694C216.715 190.694 217.148 190.799 217.526 191.01C217.905 191.214 218.203 191.49 218.421 191.839L218.258 192.09V188.446H219.283V196.706H218.29V195.451L218.421 195.626C218.218 196.011 217.919 196.31 217.526 196.521C217.141 196.732 216.708 196.837 216.228 196.837ZM216.315 195.855C216.686 195.855 217.017 195.764 217.308 195.582C217.599 195.4 217.828 195.153 217.996 194.84C218.17 194.52 218.258 194.164 218.258 193.771C218.258 193.371 218.17 193.014 217.996 192.701C217.828 192.381 217.599 192.13 217.308 191.949C217.017 191.767 216.686 191.676 216.315 191.676C215.952 191.676 215.621 191.77 215.322 191.959C215.031 192.141 214.802 192.389 214.635 192.701C214.468 193.007 214.384 193.363 214.384 193.771C214.384 194.164 214.468 194.52 214.635 194.84C214.802 195.153 215.031 195.4 215.322 195.582C215.613 195.764 215.944 195.855 216.315 195.855ZM220.636 196.706V190.825H221.651V196.706H220.636ZM220.636 189.886V188.577H221.651V189.886H220.636ZM223.007 196.706V190.825H224V191.97L223.836 191.872C223.982 191.501 224.214 191.214 224.535 191.01C224.862 190.799 225.244 190.694 225.68 190.694C226.102 190.694 226.477 190.788 226.804 190.977C227.139 191.167 227.401 191.428 227.59 191.763C227.786 192.098 227.884 192.476 227.884 192.898V196.706H226.859V193.225C226.859 192.898 226.801 192.621 226.684 192.396C226.568 192.17 226.4 191.996 226.182 191.872C225.971 191.741 225.728 191.676 225.451 191.676C225.175 191.676 224.927 191.741 224.709 191.872C224.498 191.996 224.331 192.174 224.207 192.407C224.084 192.632 224.022 192.905 224.022 193.225V196.706H223.007ZM231.923 199.107C231.508 199.107 231.122 199.041 230.766 198.91C230.417 198.779 230.115 198.597 229.86 198.365C229.613 198.139 229.424 197.874 229.293 197.568L230.242 197.132C230.344 197.408 230.537 197.641 230.821 197.83C231.112 198.026 231.475 198.125 231.912 198.125C232.246 198.125 232.548 198.059 232.817 197.928C233.094 197.805 233.312 197.615 233.472 197.361C233.632 197.113 233.712 196.812 233.712 196.455V195.135L233.898 195.331C233.694 195.731 233.399 196.037 233.014 196.248C232.636 196.459 232.217 196.564 231.759 196.564C231.206 196.564 230.711 196.437 230.275 196.182C229.839 195.92 229.497 195.568 229.249 195.124C229.002 194.673 228.878 194.175 228.878 193.629C228.878 193.076 229.002 192.578 229.249 192.134C229.497 191.69 229.835 191.341 230.264 191.086C230.701 190.825 231.195 190.694 231.748 190.694C232.206 190.694 232.621 190.799 232.992 191.01C233.37 191.214 233.672 191.498 233.898 191.861L233.745 192.134V190.825H234.738V196.455C234.738 196.964 234.618 197.419 234.378 197.819C234.138 198.219 233.803 198.532 233.374 198.757C232.952 198.99 232.468 199.107 231.923 199.107ZM231.846 195.582C232.195 195.582 232.508 195.495 232.785 195.32C233.068 195.146 233.294 194.913 233.461 194.622C233.629 194.324 233.712 193.993 233.712 193.629C233.712 193.272 233.629 192.945 233.461 192.647C233.294 192.349 233.068 192.112 232.785 191.938C232.508 191.763 232.195 191.676 231.846 191.676C231.49 191.676 231.166 191.763 230.875 191.938C230.584 192.112 230.355 192.349 230.188 192.647C230.028 192.938 229.948 193.265 229.948 193.629C229.948 193.993 230.028 194.324 230.188 194.622C230.355 194.913 230.581 195.146 230.864 195.32C231.155 195.495 231.483 195.582 231.846 195.582Z" fill="#596780"/>
</g>
<defs>
<filter id="filter0_d_943_38276" x="0" y="0" width="425" height="615.956" filterUnits="userSpaceOnUse" color-interpolation-filters="sRGB">
<feFlood flood-opacity="0" result="BackgroundImageFix"/>
<feColorMatrix in="SourceAlpha" type="matrix" values="0 0 0 0 0 0 0 0 0 0 0 0 0 0 0 0 0 0 127 0" result="hardAlpha"/>
<feOffset dx="20" dy="20"/>
<feGaussianBlur stdDeviation="40"/>
<feComposite in2="hardAlpha" operator="out"/>
<feColorMatrix type="matrix" values="0 0 0 0 0 0 0 0 0 0 0 0 0 0 0 0 0 0 0.15 0"/>
<feBlend mode="normal" in2="BackgroundImageFix" result="effect1_dropShadow_943_38276"/>
<feBlend mode="normal" in="SourceGraphic" in2="effect1_dropShadow_943_38276" result="shape"/>
</filter>
</defs>
</svg>
