<svg width="491" height="354" viewBox="0 0 491 354" fill="none" xmlns="http://www.w3.org/2000/svg">
<rect width="491" height="354" rx="12" fill="#1A202C"/>
<circle cx="56" cy="54" r="24" fill="#1A71F6"/>
<path d="M55.5247 64.72V49.24H52.0927V46.84H58.3327V64.72H55.5247Z" fill="white"/>
<path d="M102.78 62.24C101.833 62.24 100.967 62.0667 100.18 61.72C99.3933 61.36 98.7267 60.8733 98.18 60.26C97.6333 59.6467 97.24 58.96 97 58.2L98.7 57.5C99.06 58.46 99.5933 59.2 100.3 59.72C101.02 60.2267 101.86 60.48 102.82 60.48C103.407 60.48 103.92 60.3867 104.36 60.2C104.8 60.0133 105.14 59.7533 105.38 59.42C105.633 59.0733 105.76 58.6733 105.76 58.22C105.76 57.5933 105.58 57.1 105.22 56.74C104.873 56.3667 104.36 56.0867 103.68 55.9L100.94 55.06C99.86 54.7267 99.0333 54.2 98.46 53.48C97.8867 52.76 97.6 51.9333 97.6 51C97.6 50.1867 97.7933 49.4733 98.18 48.86C98.58 48.2333 99.1267 47.7467 99.82 47.4C100.527 47.04 101.327 46.86 102.22 46.86C103.113 46.86 103.92 47.02 104.64 47.34C105.373 47.66 105.993 48.0933 106.5 48.64C107.007 49.1733 107.38 49.7867 107.62 50.48L105.94 51.18C105.62 50.34 105.14 49.7067 104.5 49.28C103.86 48.84 103.107 48.62 102.24 48.62C101.707 48.62 101.233 48.7133 100.82 48.9C100.42 49.0733 100.107 49.3333 99.88 49.68C99.6667 50.0133 99.56 50.4133 99.56 50.88C99.56 51.4267 99.7333 51.9133 100.08 52.34C100.427 52.7667 100.953 53.0933 101.66 53.32L104.16 54.06C105.333 54.42 106.22 54.9333 106.82 55.6C107.42 56.2667 107.72 57.0933 107.72 58.08C107.72 58.8933 107.507 59.6133 107.08 60.24C106.667 60.8667 106.087 61.36 105.34 61.72C104.607 62.0667 103.753 62.24 102.78 62.24ZM109.97 62V51.22H111.83V62H109.97ZM109.97 49.5V47.1H111.83V49.5H109.97ZM119.456 66.4C118.696 66.4 117.989 66.28 117.336 66.04C116.696 65.8 116.142 65.4667 115.676 65.04C115.222 64.6267 114.876 64.14 114.636 63.58L116.376 62.78C116.562 63.2867 116.916 63.7133 117.436 64.06C117.969 64.42 118.636 64.6 119.436 64.6C120.049 64.6 120.602 64.48 121.096 64.24C121.602 64.0133 122.002 63.6667 122.296 63.2C122.589 62.7467 122.736 62.1933 122.736 61.54V59.12L123.076 59.48C122.702 60.2133 122.162 60.7733 121.456 61.16C120.762 61.5467 119.996 61.74 119.156 61.74C118.142 61.74 117.236 61.5067 116.436 61.04C115.636 60.56 115.009 59.9133 114.556 59.1C114.102 58.2733 113.876 57.36 113.876 56.36C113.876 55.3467 114.102 54.4333 114.556 53.62C115.009 52.8067 115.629 52.1667 116.416 51.7C117.216 51.22 118.122 50.98 119.136 50.98C119.976 50.98 120.736 51.1733 121.416 51.56C122.109 51.9333 122.662 52.4533 123.076 53.12L122.796 53.62V51.22H124.616V61.54C124.616 62.4733 124.396 63.3067 123.956 64.04C123.516 64.7733 122.902 65.3467 122.116 65.76C121.342 66.1867 120.456 66.4 119.456 66.4ZM119.316 59.94C119.956 59.94 120.529 59.78 121.036 59.46C121.556 59.14 121.969 58.7133 122.276 58.18C122.582 57.6333 122.736 57.0267 122.736 56.36C122.736 55.7067 122.582 55.1067 122.276 54.56C121.969 54.0133 121.556 53.58 121.036 53.26C120.529 52.94 119.956 52.78 119.316 52.78C118.662 52.78 118.069 52.94 117.536 53.26C117.002 53.58 116.582 54.0133 116.276 54.56C115.982 55.0933 115.836 55.6933 115.836 56.36C115.836 57.0267 115.982 57.6333 116.276 58.18C116.582 58.7133 116.996 59.14 117.516 59.46C118.049 59.78 118.649 59.94 119.316 59.94ZM127.099 62V51.22H128.919V53.32L128.619 53.14C128.886 52.46 129.313 51.9333 129.899 51.56C130.499 51.1733 131.199 50.98 131.999 50.98C132.773 50.98 133.459 51.1533 134.059 51.5C134.673 51.8467 135.153 52.3267 135.499 52.94C135.859 53.5533 136.039 54.2467 136.039 55.02V62H134.159V55.62C134.159 55.02 134.053 54.5133 133.839 54.1C133.626 53.6867 133.319 53.3667 132.919 53.14C132.533 52.9 132.086 52.78 131.579 52.78C131.073 52.78 130.619 52.9 130.219 53.14C129.833 53.3667 129.526 53.6933 129.299 54.12C129.073 54.5333 128.959 55.0333 128.959 55.62V62H127.099ZM146.978 62.24C145.898 62.24 144.938 62.0133 144.098 61.56C143.271 61.1067 142.625 60.4867 142.158 59.7C141.705 58.9 141.478 57.9933 141.478 56.98V47.1H143.458V56.94C143.458 57.62 143.605 58.2267 143.898 58.76C144.205 59.28 144.618 59.6867 145.138 59.98C145.671 60.2733 146.285 60.42 146.978 60.42C147.671 60.42 148.278 60.2733 148.798 59.98C149.331 59.6867 149.745 59.28 150.038 58.76C150.345 58.2267 150.498 57.62 150.498 56.94V47.1H152.478V56.98C152.478 57.9933 152.245 58.9 151.778 59.7C151.325 60.4867 150.685 61.1067 149.858 61.56C149.031 62.0133 148.071 62.24 146.978 62.24ZM155.079 66V51.22H156.899V53.54L156.659 53.08C157.059 52.44 157.606 51.9333 158.299 51.56C158.992 51.1733 159.786 50.98 160.679 50.98C161.692 50.98 162.599 51.2267 163.399 51.72C164.212 52.2133 164.852 52.8867 165.319 53.74C165.786 54.58 166.019 55.54 166.019 56.62C166.019 57.6733 165.786 58.6267 165.319 59.48C164.852 60.3333 164.212 61.0067 163.399 61.5C162.599 61.9933 161.686 62.24 160.659 62.24C159.792 62.24 158.999 62.0467 158.279 61.66C157.572 61.2733 157.026 60.7267 156.639 60.02L156.939 59.7V66H155.079ZM160.519 60.44C161.199 60.44 161.806 60.2733 162.339 59.94C162.872 59.6067 163.286 59.1533 163.579 58.58C163.886 57.9933 164.039 57.34 164.039 56.62C164.039 55.8733 163.886 55.22 163.579 54.66C163.286 54.0867 162.872 53.6333 162.339 53.3C161.806 52.9533 161.199 52.78 160.519 52.78C159.839 52.78 159.226 52.9467 158.679 53.28C158.146 53.6133 157.719 54.0733 157.399 54.66C157.092 55.2333 156.939 55.8867 156.939 56.62C156.939 57.34 157.092 57.9933 157.399 58.58C157.719 59.1533 158.146 59.6067 158.679 59.94C159.226 60.2733 159.839 60.44 160.519 60.44ZM174.275 62.24C173.568 62.24 172.942 62.1133 172.395 61.86C171.862 61.5933 171.442 61.2333 171.135 60.78C170.828 60.3133 170.675 59.78 170.675 59.18C170.675 58.6067 170.795 58.0933 171.035 57.64C171.288 57.1733 171.675 56.78 172.195 56.46C172.728 56.14 173.395 55.9133 174.195 55.78L178.195 55.12V56.68L174.615 57.28C173.922 57.4 173.415 57.62 173.095 57.94C172.788 58.26 172.635 58.6533 172.635 59.12C172.635 59.56 172.808 59.9267 173.155 60.22C173.515 60.5133 173.962 60.66 174.495 60.66C175.175 60.66 175.762 60.52 176.255 60.24C176.762 59.9467 177.155 59.5533 177.435 59.06C177.728 58.5667 177.875 58.02 177.875 57.42V54.68C177.875 54.0933 177.655 53.62 177.215 53.26C176.788 52.8867 176.222 52.7 175.515 52.7C174.902 52.7 174.355 52.86 173.875 53.18C173.408 53.4867 173.062 53.9 172.835 54.42L171.215 53.58C171.415 53.0867 171.735 52.6467 172.175 52.26C172.615 51.86 173.128 51.5467 173.715 51.32C174.302 51.0933 174.915 50.98 175.555 50.98C176.382 50.98 177.108 51.14 177.735 51.46C178.362 51.7667 178.848 52.2 179.195 52.76C179.555 53.3067 179.735 53.9467 179.735 54.68V62H177.915V59.96L178.255 60.08C178.028 60.5067 177.722 60.88 177.335 61.2C176.948 61.52 176.495 61.7733 175.975 61.96C175.455 62.1467 174.888 62.24 174.275 62.24ZM186.079 62.24C184.999 62.24 184.059 61.9733 183.259 61.44C182.459 60.9067 181.892 60.1867 181.559 59.28L183.039 58.56C183.346 59.2 183.766 59.7067 184.299 60.08C184.832 60.4533 185.426 60.64 186.079 60.64C186.666 60.64 187.152 60.5 187.539 60.22C187.926 59.94 188.119 59.5733 188.119 59.12C188.119 58.8 188.026 58.5467 187.839 58.36C187.666 58.16 187.452 58.0067 187.199 57.9C186.946 57.78 186.712 57.6933 186.499 57.64L184.879 57.18C183.906 56.9 183.192 56.5 182.739 55.98C182.299 55.46 182.079 54.8533 182.079 54.16C182.079 53.52 182.239 52.9667 182.559 52.5C182.892 52.02 183.339 51.6467 183.899 51.38C184.472 51.1133 185.112 50.98 185.819 50.98C186.766 50.98 187.612 51.22 188.359 51.7C189.119 52.18 189.659 52.8533 189.979 53.72L188.459 54.42C188.219 53.86 187.859 53.42 187.379 53.1C186.899 52.7667 186.359 52.6 185.759 52.6C185.212 52.6 184.779 52.74 184.459 53.02C184.139 53.2867 183.979 53.6267 183.979 54.04C183.979 54.3467 184.059 54.6 184.219 54.8C184.379 54.9867 184.572 55.1333 184.799 55.24C185.026 55.3333 185.246 55.4133 185.459 55.48L187.219 56C188.099 56.2533 188.779 56.6467 189.259 57.18C189.752 57.7133 189.999 58.3533 189.999 59.1C189.999 59.7 189.832 60.24 189.499 60.72C189.166 61.2 188.706 61.5733 188.119 61.84C187.532 62.1067 186.852 62.24 186.079 62.24ZM198.251 62.24C197.544 62.24 196.917 62.1133 196.371 61.86C195.837 61.5933 195.417 61.2333 195.111 60.78C194.804 60.3133 194.651 59.78 194.651 59.18C194.651 58.6067 194.771 58.0933 195.011 57.64C195.264 57.1733 195.651 56.78 196.171 56.46C196.704 56.14 197.371 55.9133 198.171 55.78L202.171 55.12V56.68L198.591 57.28C197.897 57.4 197.391 57.62 197.071 57.94C196.764 58.26 196.611 58.6533 196.611 59.12C196.611 59.56 196.784 59.9267 197.131 60.22C197.491 60.5133 197.937 60.66 198.471 60.66C199.151 60.66 199.737 60.52 200.231 60.24C200.737 59.9467 201.131 59.5533 201.411 59.06C201.704 58.5667 201.851 58.02 201.851 57.42V54.68C201.851 54.0933 201.631 53.62 201.191 53.26C200.764 52.8867 200.197 52.7 199.491 52.7C198.877 52.7 198.331 52.86 197.851 53.18C197.384 53.4867 197.037 53.9 196.811 54.42L195.191 53.58C195.391 53.0867 195.711 52.6467 196.151 52.26C196.591 51.86 197.104 51.5467 197.691 51.32C198.277 51.0933 198.891 50.98 199.531 50.98C200.357 50.98 201.084 51.14 201.711 51.46C202.337 51.7667 202.824 52.2 203.171 52.76C203.531 53.3067 203.711 53.9467 203.711 54.68V62H201.891V59.96L202.231 60.08C202.004 60.5067 201.697 60.88 201.311 61.2C200.924 61.52 200.471 61.7733 199.951 61.96C199.431 62.1467 198.864 62.24 198.251 62.24ZM209.472 62V47.1H215.732C216.625 47.1 217.392 47.26 218.032 47.58C218.685 47.9 219.185 48.3533 219.532 48.94C219.892 49.5133 220.072 50.2 220.072 51C220.072 51.7333 219.878 52.4 219.492 53C219.118 53.5867 218.565 54.0467 217.832 54.38L217.812 53.64C218.452 53.88 218.978 54.2 219.392 54.6C219.818 54.9867 220.138 55.44 220.352 55.96C220.565 56.4667 220.672 57.0067 220.672 57.58C220.672 58.9533 220.232 60.0333 219.352 60.82C218.472 61.6067 217.272 62 215.752 62H209.472ZM211.432 60.2H215.832C216.698 60.2 217.392 59.9667 217.912 59.5C218.432 59.0333 218.692 58.4 218.692 57.6C218.692 56.8 218.432 56.1667 217.912 55.7C217.392 55.22 216.698 54.98 215.832 54.98H211.432V60.2ZM211.432 53.22H215.692C216.412 53.22 216.992 53.0133 217.432 52.6C217.872 52.1733 218.092 51.6333 218.092 50.98C218.092 50.3 217.872 49.78 217.432 49.42C216.992 49.06 216.412 48.88 215.692 48.88H211.432V53.22ZM222.699 62V51.22H224.519V53.2L224.319 52.92C224.573 52.3067 224.959 51.8533 225.479 51.56C225.999 51.2533 226.633 51.1 227.379 51.1H228.039V52.86H227.099C226.339 52.86 225.726 53.1 225.259 53.58C224.793 54.0467 224.559 54.7133 224.559 55.58V62H222.699ZM232.452 62.24C231.745 62.24 231.118 62.1133 230.572 61.86C230.038 61.5933 229.618 61.2333 229.312 60.78C229.005 60.3133 228.852 59.78 228.852 59.18C228.852 58.6067 228.972 58.0933 229.212 57.64C229.465 57.1733 229.852 56.78 230.372 56.46C230.905 56.14 231.572 55.9133 232.372 55.78L236.372 55.12V56.68L232.792 57.28C232.098 57.4 231.592 57.62 231.272 57.94C230.965 58.26 230.812 58.6533 230.812 59.12C230.812 59.56 230.985 59.9267 231.332 60.22C231.692 60.5133 232.138 60.66 232.672 60.66C233.352 60.66 233.938 60.52 234.432 60.24C234.938 59.9467 235.332 59.5533 235.612 59.06C235.905 58.5667 236.052 58.02 236.052 57.42V54.68C236.052 54.0933 235.832 53.62 235.392 53.26C234.965 52.8867 234.398 52.7 233.692 52.7C233.078 52.7 232.532 52.86 232.052 53.18C231.585 53.4867 231.238 53.9 231.012 54.42L229.392 53.58C229.592 53.0867 229.912 52.6467 230.352 52.26C230.792 51.86 231.305 51.5467 231.892 51.32C232.478 51.0933 233.092 50.98 233.732 50.98C234.558 50.98 235.285 51.14 235.912 51.46C236.538 51.7667 237.025 52.2 237.372 52.76C237.732 53.3067 237.912 53.9467 237.912 54.68V62H236.092V59.96L236.432 60.08C236.205 60.5067 235.898 60.88 235.512 61.2C235.125 61.52 234.672 61.7733 234.152 61.96C233.632 62.1467 233.065 62.24 232.452 62.24ZM240.395 62V51.22H242.215V53.32L241.915 53.14C242.182 52.46 242.609 51.9333 243.195 51.56C243.795 51.1733 244.495 50.98 245.295 50.98C246.069 50.98 246.755 51.1533 247.355 51.5C247.969 51.8467 248.449 52.3267 248.795 52.94C249.155 53.5533 249.335 54.2467 249.335 55.02V62H247.455V55.62C247.455 55.02 247.349 54.5133 247.135 54.1C246.922 53.6867 246.615 53.3667 246.215 53.14C245.829 52.9 245.382 52.78 244.875 52.78C244.369 52.78 243.915 52.9 243.515 53.14C243.129 53.3667 242.822 53.6933 242.595 54.12C242.369 54.5333 242.255 55.0333 242.255 55.62V62H240.395ZM256.497 62.24C255.484 62.24 254.57 61.9933 253.757 61.5C252.957 61.0067 252.324 60.3333 251.857 59.48C251.39 58.6267 251.157 57.6733 251.157 56.62C251.157 55.54 251.39 54.58 251.857 53.74C252.324 52.8867 252.957 52.2133 253.757 51.72C254.57 51.2267 255.484 50.98 256.497 50.98C257.39 50.98 258.184 51.1733 258.877 51.56C259.57 51.9333 260.117 52.44 260.517 53.08L260.217 53.54V46.86H262.097V62H260.277V59.7L260.517 60.02C260.144 60.7267 259.597 61.2733 258.877 61.66C258.17 62.0467 257.377 62.24 256.497 62.24ZM256.657 60.44C257.337 60.44 257.944 60.2733 258.477 59.94C259.01 59.6067 259.43 59.1533 259.737 58.58C260.057 57.9933 260.217 57.34 260.217 56.62C260.217 55.8867 260.057 55.2333 259.737 54.66C259.43 54.0733 259.01 53.6133 258.477 53.28C257.944 52.9467 257.337 52.78 256.657 52.78C255.99 52.78 255.384 52.9533 254.837 53.3C254.304 53.6333 253.884 54.0867 253.577 54.66C253.27 55.22 253.117 55.8733 253.117 56.62C253.117 57.34 253.27 57.9933 253.577 58.58C253.884 59.1533 254.304 59.6067 254.837 59.94C255.37 60.2733 255.977 60.44 256.657 60.44Z" fill="white"/>
<circle cx="56" cy="137" r="24" fill="#1A71F6"/>
<path d="M50.0281 145.72V143.68L54.9241 138.448C55.8841 137.424 56.6361 136.6 57.1801 135.976C57.7401 135.336 58.1401 134.776 58.3801 134.296C58.6361 133.816 58.7641 133.312 58.7641 132.784C58.7641 131.92 58.5001 131.256 57.9721 130.792C57.4441 130.312 56.7641 130.072 55.9321 130.072C55.0681 130.072 54.3241 130.32 53.7001 130.816C53.0761 131.296 52.6441 132 52.4041 132.928L49.9081 132.208C50.1001 131.264 50.4841 130.448 51.0601 129.76C51.6361 129.056 52.3401 128.512 53.1721 128.128C54.0201 127.744 54.9321 127.552 55.9081 127.552C57.0441 127.552 58.0361 127.768 58.8841 128.2C59.7321 128.616 60.3881 129.2 60.8521 129.952C61.3321 130.704 61.5721 131.576 61.5721 132.568C61.5721 133.224 61.4441 133.864 61.1881 134.488C60.9481 135.096 60.5721 135.744 60.0601 136.432C59.5481 137.104 58.8921 137.864 58.0921 138.712L53.7721 143.32H61.9081V145.72H50.0281Z" fill="white"/>
<path d="M104.52 145.24C103.467 145.24 102.493 145.053 101.6 144.68C100.72 144.293 99.9467 143.753 99.28 143.06C98.6267 142.367 98.12 141.553 97.76 140.62C97.4 139.687 97.22 138.667 97.22 137.56C97.22 136.44 97.4 135.413 97.76 134.48C98.12 133.547 98.6267 132.733 99.28 132.04C99.9333 131.347 100.707 130.813 101.6 130.44C102.493 130.053 103.467 129.86 104.52 129.86C105.547 129.86 106.467 130.04 107.28 130.4C108.107 130.76 108.8 131.227 109.36 131.8C109.933 132.373 110.34 132.987 110.58 133.64L108.78 134.46C108.433 133.633 107.893 132.967 107.16 132.46C106.427 131.94 105.547 131.68 104.52 131.68C103.48 131.68 102.553 131.927 101.74 132.42C100.94 132.913 100.313 133.6 99.86 134.48C99.4067 135.36 99.18 136.387 99.18 137.56C99.18 138.72 99.4067 139.74 99.86 140.62C100.313 141.5 100.94 142.187 101.74 142.68C102.553 143.173 103.48 143.42 104.52 143.42C105.547 143.42 106.427 143.167 107.16 142.66C107.893 142.14 108.433 141.467 108.78 140.64L110.58 141.46C110.34 142.113 109.933 142.727 109.36 143.3C108.8 143.873 108.107 144.34 107.28 144.7C106.467 145.06 105.547 145.24 104.52 145.24ZM112.626 145V134.22H114.446V136.2L114.246 135.92C114.499 135.307 114.886 134.853 115.406 134.56C115.926 134.253 116.559 134.1 117.306 134.1H117.966V135.86H117.026C116.266 135.86 115.653 136.1 115.186 136.58C114.719 137.047 114.486 137.713 114.486 138.58V145H112.626ZM124.178 145.24C123.138 145.24 122.211 144.993 121.398 144.5C120.585 144.007 119.945 143.333 119.478 142.48C119.011 141.613 118.778 140.647 118.778 139.58C118.778 138.5 119.005 137.54 119.458 136.7C119.925 135.86 120.551 135.2 121.338 134.72C122.138 134.227 123.031 133.98 124.018 133.98C124.818 133.98 125.525 134.127 126.138 134.42C126.765 134.7 127.291 135.087 127.718 135.58C128.158 136.06 128.491 136.613 128.718 137.24C128.958 137.853 129.078 138.493 129.078 139.16C129.078 139.307 129.065 139.473 129.038 139.66C129.025 139.833 129.005 140 128.978 140.16H120.138V138.56H127.898L127.018 139.28C127.138 138.587 127.071 137.967 126.818 137.42C126.565 136.873 126.191 136.44 125.698 136.12C125.205 135.8 124.645 135.64 124.018 135.64C123.391 135.64 122.818 135.8 122.298 136.12C121.778 136.44 121.371 136.9 121.078 137.5C120.798 138.087 120.685 138.787 120.738 139.6C120.685 140.387 120.805 141.08 121.098 141.68C121.405 142.267 121.831 142.727 122.378 143.06C122.938 143.38 123.545 143.54 124.198 143.54C124.918 143.54 125.525 143.373 126.018 143.04C126.511 142.707 126.911 142.28 127.218 141.76L128.778 142.56C128.565 143.053 128.231 143.507 127.778 143.92C127.338 144.32 126.811 144.64 126.198 144.88C125.598 145.12 124.925 145.24 124.178 145.24ZM134.127 145.24C133.42 145.24 132.793 145.113 132.247 144.86C131.713 144.593 131.293 144.233 130.987 143.78C130.68 143.313 130.527 142.78 130.527 142.18C130.527 141.607 130.647 141.093 130.887 140.64C131.14 140.173 131.527 139.78 132.047 139.46C132.58 139.14 133.247 138.913 134.047 138.78L138.047 138.12V139.68L134.467 140.28C133.773 140.4 133.267 140.62 132.947 140.94C132.64 141.26 132.487 141.653 132.487 142.12C132.487 142.56 132.66 142.927 133.007 143.22C133.367 143.513 133.813 143.66 134.347 143.66C135.027 143.66 135.613 143.52 136.107 143.24C136.613 142.947 137.007 142.553 137.287 142.06C137.58 141.567 137.727 141.02 137.727 140.42V137.68C137.727 137.093 137.507 136.62 137.067 136.26C136.64 135.887 136.073 135.7 135.367 135.7C134.753 135.7 134.207 135.86 133.727 136.18C133.26 136.487 132.913 136.9 132.687 137.42L131.067 136.58C131.267 136.087 131.587 135.647 132.027 135.26C132.467 134.86 132.98 134.547 133.567 134.32C134.153 134.093 134.767 133.98 135.407 133.98C136.233 133.98 136.96 134.14 137.587 134.46C138.213 134.767 138.7 135.2 139.047 135.76C139.407 136.307 139.587 136.947 139.587 137.68V145H137.767V142.96L138.107 143.08C137.88 143.507 137.573 143.88 137.187 144.2C136.8 144.52 136.347 144.773 135.827 144.96C135.307 145.147 134.74 145.24 134.127 145.24ZM146.255 145.12C145.202 145.12 144.388 144.82 143.815 144.22C143.255 143.62 142.975 142.773 142.975 141.68V136H141.015V134.22H141.415C141.895 134.22 142.275 134.073 142.555 133.78C142.835 133.487 142.975 133.1 142.975 132.62V131.74H144.835V134.22H147.255V136H144.835V141.62C144.835 141.98 144.888 142.293 144.995 142.56C145.115 142.827 145.308 143.04 145.575 143.2C145.842 143.347 146.195 143.42 146.635 143.42C146.728 143.42 146.842 143.413 146.975 143.4C147.122 143.387 147.255 143.373 147.375 143.36V145C147.202 145.04 147.008 145.067 146.795 145.08C146.582 145.107 146.402 145.12 146.255 145.12ZM154.072 145.24C153.032 145.24 152.105 144.993 151.292 144.5C150.479 144.007 149.839 143.333 149.372 142.48C148.905 141.613 148.672 140.647 148.672 139.58C148.672 138.5 148.899 137.54 149.352 136.7C149.819 135.86 150.445 135.2 151.232 134.72C152.032 134.227 152.925 133.98 153.912 133.98C154.712 133.98 155.419 134.127 156.032 134.42C156.659 134.7 157.185 135.087 157.612 135.58C158.052 136.06 158.385 136.613 158.612 137.24C158.852 137.853 158.972 138.493 158.972 139.16C158.972 139.307 158.959 139.473 158.932 139.66C158.919 139.833 158.899 140 158.872 140.16H150.032V138.56H157.792L156.912 139.28C157.032 138.587 156.965 137.967 156.712 137.42C156.459 136.873 156.085 136.44 155.592 136.12C155.099 135.8 154.539 135.64 153.912 135.64C153.285 135.64 152.712 135.8 152.192 136.12C151.672 136.44 151.265 136.9 150.972 137.5C150.692 138.087 150.579 138.787 150.632 139.6C150.579 140.387 150.699 141.08 150.992 141.68C151.299 142.267 151.725 142.727 152.272 143.06C152.832 143.38 153.439 143.54 154.092 143.54C154.812 143.54 155.419 143.373 155.912 143.04C156.405 142.707 156.805 142.28 157.112 141.76L158.672 142.56C158.459 143.053 158.125 143.507 157.672 143.92C157.232 144.32 156.705 144.64 156.092 144.88C155.492 145.12 154.819 145.24 154.072 145.24ZM164.634 149.4C164.394 149.4 164.154 149.38 163.914 149.34C163.674 149.3 163.447 149.233 163.234 149.14V147.48C163.381 147.507 163.561 147.533 163.774 147.56C164.001 147.6 164.221 147.62 164.434 147.62C165.061 147.62 165.534 147.48 165.854 147.2C166.187 146.933 166.501 146.467 166.794 145.8L167.474 144.18L167.434 145.8L162.834 134.22H164.854L168.434 143.42H167.834L171.394 134.22H173.454L168.594 146.28C168.367 146.853 168.074 147.373 167.714 147.84C167.367 148.32 166.941 148.7 166.434 148.98C165.927 149.26 165.327 149.4 164.634 149.4ZM179.633 145.24C178.593 145.24 177.653 145 176.813 144.52C175.973 144.027 175.307 143.353 174.813 142.5C174.32 141.647 174.073 140.68 174.073 139.6C174.073 138.52 174.313 137.56 174.793 136.72C175.287 135.88 175.953 135.213 176.793 134.72C177.633 134.227 178.58 133.98 179.633 133.98C180.673 133.98 181.613 134.227 182.453 134.72C183.293 135.2 183.953 135.86 184.433 136.7C184.927 137.54 185.173 138.507 185.173 139.6C185.173 140.693 184.92 141.667 184.413 142.52C183.907 143.36 183.233 144.027 182.393 144.52C181.567 145 180.647 145.24 179.633 145.24ZM179.633 143.44C180.3 143.44 180.9 143.273 181.433 142.94C181.98 142.607 182.407 142.147 182.713 141.56C183.033 140.973 183.193 140.32 183.193 139.6C183.193 138.867 183.033 138.22 182.713 137.66C182.407 137.087 181.98 136.633 181.433 136.3C180.9 135.953 180.3 135.78 179.633 135.78C178.953 135.78 178.34 135.953 177.793 136.3C177.26 136.633 176.833 137.087 176.513 137.66C176.193 138.22 176.033 138.867 176.033 139.6C176.033 140.32 176.193 140.973 176.513 141.56C176.833 142.147 177.26 142.607 177.793 142.94C178.34 143.273 178.953 143.44 179.633 143.44ZM191.019 145.24C190.246 145.24 189.546 145.06 188.919 144.7C188.306 144.34 187.826 143.84 187.479 143.2C187.146 142.547 186.979 141.8 186.979 140.96V134.22H188.839V140.76C188.839 141.293 188.946 141.76 189.159 142.16C189.386 142.56 189.693 142.873 190.079 143.1C190.479 143.327 190.933 143.44 191.439 143.44C191.946 143.44 192.393 143.327 192.779 143.1C193.179 142.873 193.486 142.547 193.699 142.12C193.926 141.693 194.039 141.187 194.039 140.6V134.22H195.919V145H194.099V142.9L194.399 143.08C194.146 143.76 193.713 144.293 193.099 144.68C192.499 145.053 191.806 145.24 191.019 145.24ZM198.401 145V134.22H200.221V136.2L200.021 135.92C200.274 135.307 200.661 134.853 201.181 134.56C201.701 134.253 202.334 134.1 203.081 134.1H203.741V135.86H202.801C202.041 135.86 201.428 136.1 200.961 136.58C200.494 137.047 200.261 137.713 200.261 138.58V145H198.401ZM209.19 145V136H207.13V134.22H209.19V133.46C209.19 132.687 209.357 132.033 209.69 131.5C210.037 130.967 210.49 130.56 211.05 130.28C211.623 130 212.257 129.86 212.95 129.86C213.097 129.86 213.257 129.873 213.43 129.9C213.617 129.913 213.77 129.933 213.89 129.96V131.62C213.783 131.593 213.657 131.58 213.51 131.58C213.363 131.567 213.25 131.56 213.17 131.56C212.557 131.56 212.05 131.707 211.65 132C211.263 132.293 211.07 132.78 211.07 133.46V134.22H216.67V136H211.07V145H209.19ZM215.51 145V134.22H217.39V145H215.51ZM219.564 145V134.22H221.384V136.2L221.184 135.92C221.438 135.307 221.824 134.853 222.344 134.56C222.864 134.253 223.498 134.1 224.244 134.1H224.904V135.86H223.964C223.204 135.86 222.591 136.1 222.124 136.58C221.658 137.047 221.424 137.713 221.424 138.58V145H219.564ZM230.016 145.24C228.936 145.24 227.996 144.973 227.196 144.44C226.396 143.907 225.83 143.187 225.496 142.28L226.976 141.56C227.283 142.2 227.703 142.707 228.236 143.08C228.77 143.453 229.363 143.64 230.016 143.64C230.603 143.64 231.09 143.5 231.476 143.22C231.863 142.94 232.056 142.573 232.056 142.12C232.056 141.8 231.963 141.547 231.776 141.36C231.603 141.16 231.39 141.007 231.136 140.9C230.883 140.78 230.65 140.693 230.436 140.64L228.816 140.18C227.843 139.9 227.13 139.5 226.676 138.98C226.236 138.46 226.016 137.853 226.016 137.16C226.016 136.52 226.176 135.967 226.496 135.5C226.83 135.02 227.276 134.647 227.836 134.38C228.41 134.113 229.05 133.98 229.756 133.98C230.703 133.98 231.55 134.22 232.296 134.7C233.056 135.18 233.596 135.853 233.916 136.72L232.396 137.42C232.156 136.86 231.796 136.42 231.316 136.1C230.836 135.767 230.296 135.6 229.696 135.6C229.15 135.6 228.716 135.74 228.396 136.02C228.076 136.287 227.916 136.627 227.916 137.04C227.916 137.347 227.996 137.6 228.156 137.8C228.316 137.987 228.51 138.133 228.736 138.24C228.963 138.333 229.183 138.413 229.396 138.48L231.156 139C232.036 139.253 232.716 139.647 233.196 140.18C233.69 140.713 233.936 141.353 233.936 142.1C233.936 142.7 233.77 143.24 233.436 143.72C233.103 144.2 232.643 144.573 232.056 144.84C231.47 145.107 230.79 145.24 230.016 145.24ZM240.351 145.12C239.298 145.12 238.485 144.82 237.911 144.22C237.351 143.62 237.071 142.773 237.071 141.68V136H235.111V134.22H235.511C235.991 134.22 236.371 134.073 236.651 133.78C236.931 133.487 237.071 133.1 237.071 132.62V131.74H238.931V134.22H241.351V136H238.931V141.62C238.931 141.98 238.985 142.293 239.091 142.56C239.211 142.827 239.405 143.04 239.671 143.2C239.938 143.347 240.291 143.42 240.731 143.42C240.825 143.42 240.938 143.413 241.071 143.4C241.218 143.387 241.351 143.373 241.471 143.36V145C241.298 145.04 241.105 145.067 240.891 145.08C240.678 145.107 240.498 145.12 240.351 145.12ZM253.638 145.24C252.585 145.24 251.611 145.053 250.718 144.68C249.838 144.293 249.065 143.753 248.398 143.06C247.745 142.367 247.238 141.553 246.878 140.62C246.518 139.687 246.338 138.667 246.338 137.56C246.338 136.44 246.518 135.413 246.878 134.48C247.238 133.547 247.745 132.733 248.398 132.04C249.051 131.347 249.825 130.813 250.718 130.44C251.611 130.053 252.585 129.86 253.638 129.86C254.665 129.86 255.585 130.04 256.398 130.4C257.225 130.76 257.918 131.227 258.478 131.8C259.051 132.373 259.458 132.987 259.698 133.64L257.898 134.46C257.551 133.633 257.011 132.967 256.278 132.46C255.545 131.94 254.665 131.68 253.638 131.68C252.598 131.68 251.671 131.927 250.858 132.42C250.058 132.913 249.431 133.6 248.978 134.48C248.525 135.36 248.298 136.387 248.298 137.56C248.298 138.72 248.525 139.74 248.978 140.62C249.431 141.5 250.058 142.187 250.858 142.68C251.671 143.173 252.598 143.42 253.638 143.42C254.665 143.42 255.545 143.167 256.278 142.66C257.011 142.14 257.551 141.467 257.898 140.64L259.698 141.46C259.458 142.113 259.051 142.727 258.478 143.3C257.918 143.873 257.225 144.34 256.398 144.7C255.585 145.06 254.665 145.24 253.638 145.24ZM264.709 145.24C264.002 145.24 263.375 145.113 262.829 144.86C262.295 144.593 261.875 144.233 261.569 143.78C261.262 143.313 261.109 142.78 261.109 142.18C261.109 141.607 261.229 141.093 261.469 140.64C261.722 140.173 262.109 139.78 262.629 139.46C263.162 139.14 263.829 138.913 264.629 138.78L268.629 138.12V139.68L265.049 140.28C264.355 140.4 263.849 140.62 263.529 140.94C263.222 141.26 263.069 141.653 263.069 142.12C263.069 142.56 263.242 142.927 263.589 143.22C263.949 143.513 264.395 143.66 264.929 143.66C265.609 143.66 266.195 143.52 266.689 143.24C267.195 142.947 267.589 142.553 267.869 142.06C268.162 141.567 268.309 141.02 268.309 140.42V137.68C268.309 137.093 268.089 136.62 267.649 136.26C267.222 135.887 266.655 135.7 265.949 135.7C265.335 135.7 264.789 135.86 264.309 136.18C263.842 136.487 263.495 136.9 263.269 137.42L261.649 136.58C261.849 136.087 262.169 135.647 262.609 135.26C263.049 134.86 263.562 134.547 264.149 134.32C264.735 134.093 265.349 133.98 265.989 133.98C266.815 133.98 267.542 134.14 268.169 134.46C268.795 134.767 269.282 135.2 269.629 135.76C269.989 136.307 270.169 136.947 270.169 137.68V145H268.349V142.96L268.689 143.08C268.462 143.507 268.155 143.88 267.769 144.2C267.382 144.52 266.929 144.773 266.409 144.96C265.889 145.147 265.322 145.24 264.709 145.24ZM272.652 145V134.22H274.472V136.42L274.212 136.08C274.479 135.4 274.906 134.88 275.492 134.52C276.079 134.16 276.739 133.98 277.472 133.98C278.312 133.98 279.066 134.213 279.732 134.68C280.412 135.147 280.879 135.76 281.132 136.52L280.612 136.54C280.892 135.7 281.366 135.067 282.032 134.64C282.699 134.2 283.439 133.98 284.252 133.98C284.999 133.98 285.672 134.153 286.272 134.5C286.886 134.847 287.372 135.327 287.732 135.94C288.092 136.553 288.272 137.247 288.272 138.02V145H286.392V138.62C286.392 138.02 286.286 137.513 286.072 137.1C285.859 136.687 285.566 136.367 285.192 136.14C284.832 135.9 284.406 135.78 283.912 135.78C283.432 135.78 282.999 135.9 282.612 136.14C282.239 136.367 281.939 136.693 281.712 137.12C281.499 137.533 281.392 138.033 281.392 138.62V145H279.512V138.62C279.512 138.02 279.406 137.513 279.192 137.1C278.979 136.687 278.686 136.367 278.312 136.14C277.952 135.9 277.526 135.78 277.032 135.78C276.552 135.78 276.119 135.9 275.732 136.14C275.359 136.367 275.059 136.693 274.832 137.12C274.619 137.533 274.512 138.033 274.512 138.62V145H272.652ZM290.514 149V134.22H292.334V136.54L292.094 136.08C292.494 135.44 293.041 134.933 293.734 134.56C294.428 134.173 295.221 133.98 296.114 133.98C297.128 133.98 298.034 134.227 298.834 134.72C299.648 135.213 300.288 135.887 300.754 136.74C301.221 137.58 301.454 138.54 301.454 139.62C301.454 140.673 301.221 141.627 300.754 142.48C300.288 143.333 299.648 144.007 298.834 144.5C298.034 144.993 297.121 145.24 296.094 145.24C295.228 145.24 294.434 145.047 293.714 144.66C293.008 144.273 292.461 143.727 292.074 143.02L292.374 142.7V149H290.514ZM295.954 143.44C296.634 143.44 297.241 143.273 297.774 142.94C298.308 142.607 298.721 142.153 299.014 141.58C299.321 140.993 299.474 140.34 299.474 139.62C299.474 138.873 299.321 138.22 299.014 137.66C298.721 137.087 298.308 136.633 297.774 136.3C297.241 135.953 296.634 135.78 295.954 135.78C295.274 135.78 294.661 135.947 294.114 136.28C293.581 136.613 293.154 137.073 292.834 137.66C292.528 138.233 292.374 138.887 292.374 139.62C292.374 140.34 292.528 140.993 292.834 141.58C293.154 142.153 293.581 142.607 294.114 142.94C294.661 143.273 295.274 143.44 295.954 143.44ZM306.653 145.24C305.946 145.24 305.32 145.113 304.773 144.86C304.24 144.593 303.82 144.233 303.513 143.78C303.206 143.313 303.053 142.78 303.053 142.18C303.053 141.607 303.173 141.093 303.413 140.64C303.666 140.173 304.053 139.78 304.573 139.46C305.106 139.14 305.773 138.913 306.573 138.78L310.573 138.12V139.68L306.993 140.28C306.3 140.4 305.793 140.62 305.473 140.94C305.166 141.26 305.013 141.653 305.013 142.12C305.013 142.56 305.186 142.927 305.533 143.22C305.893 143.513 306.34 143.66 306.873 143.66C307.553 143.66 308.14 143.52 308.633 143.24C309.14 142.947 309.533 142.553 309.813 142.06C310.106 141.567 310.253 141.02 310.253 140.42V137.68C310.253 137.093 310.033 136.62 309.593 136.26C309.166 135.887 308.6 135.7 307.893 135.7C307.28 135.7 306.733 135.86 306.253 136.18C305.786 136.487 305.44 136.9 305.213 137.42L303.593 136.58C303.793 136.087 304.113 135.647 304.553 135.26C304.993 134.86 305.506 134.547 306.093 134.32C306.68 134.093 307.293 133.98 307.933 133.98C308.76 133.98 309.486 134.14 310.113 134.46C310.74 134.767 311.226 135.2 311.573 135.76C311.933 136.307 312.113 136.947 312.113 137.68V145H310.293V142.96L310.633 143.08C310.406 143.507 310.1 143.88 309.713 144.2C309.326 144.52 308.873 144.773 308.353 144.96C307.833 145.147 307.266 145.24 306.653 145.24ZM314.597 145V134.22H316.457V145H314.597ZM314.597 132.5V130.1H316.457V132.5H314.597ZM324.083 149.4C323.323 149.4 322.616 149.28 321.963 149.04C321.323 148.8 320.77 148.467 320.303 148.04C319.85 147.627 319.503 147.14 319.263 146.58L321.003 145.78C321.19 146.287 321.543 146.713 322.063 147.06C322.596 147.42 323.263 147.6 324.063 147.6C324.676 147.6 325.23 147.48 325.723 147.24C326.23 147.013 326.63 146.667 326.923 146.2C327.216 145.747 327.363 145.193 327.363 144.54V142.12L327.703 142.48C327.33 143.213 326.79 143.773 326.083 144.16C325.39 144.547 324.623 144.74 323.783 144.74C322.77 144.74 321.863 144.507 321.063 144.04C320.263 143.56 319.636 142.913 319.183 142.1C318.73 141.273 318.503 140.36 318.503 139.36C318.503 138.347 318.73 137.433 319.183 136.62C319.636 135.807 320.256 135.167 321.043 134.7C321.843 134.22 322.75 133.98 323.763 133.98C324.603 133.98 325.363 134.173 326.043 134.56C326.736 134.933 327.29 135.453 327.703 136.12L327.423 136.62V134.22H329.243V144.54C329.243 145.473 329.023 146.307 328.583 147.04C328.143 147.773 327.53 148.347 326.743 148.76C325.97 149.187 325.083 149.4 324.083 149.4ZM323.943 142.94C324.583 142.94 325.156 142.78 325.663 142.46C326.183 142.14 326.596 141.713 326.903 141.18C327.21 140.633 327.363 140.027 327.363 139.36C327.363 138.707 327.21 138.107 326.903 137.56C326.596 137.013 326.183 136.58 325.663 136.26C325.156 135.94 324.583 135.78 323.943 135.78C323.29 135.78 322.696 135.94 322.163 136.26C321.63 136.58 321.21 137.013 320.903 137.56C320.61 138.093 320.463 138.693 320.463 139.36C320.463 140.027 320.61 140.633 320.903 141.18C321.21 141.713 321.623 142.14 322.143 142.46C322.676 142.78 323.276 142.94 323.943 142.94ZM331.727 145V134.22H333.547V136.32L333.247 136.14C333.513 135.46 333.94 134.933 334.527 134.56C335.127 134.173 335.827 133.98 336.627 133.98C337.4 133.98 338.087 134.153 338.687 134.5C339.3 134.847 339.78 135.327 340.127 135.94C340.487 136.553 340.667 137.247 340.667 138.02V145H338.787V138.62C338.787 138.02 338.68 137.513 338.467 137.1C338.253 136.687 337.947 136.367 337.547 136.14C337.16 135.9 336.713 135.78 336.207 135.78C335.7 135.78 335.247 135.9 334.847 136.14C334.46 136.367 334.153 136.693 333.927 137.12C333.7 137.533 333.587 138.033 333.587 138.62V145H331.727Z" fill="white"/>
<circle cx="56" cy="220" r="24" fill="white"/>
<path d="M55.696 230.008C54.736 230.008 53.832 229.832 52.984 229.48C52.152 229.128 51.432 228.632 50.824 227.992C50.232 227.352 49.808 226.6 49.552 225.736L51.952 224.824C52.272 225.672 52.76 226.328 53.416 226.792C54.072 227.256 54.832 227.488 55.696 227.488C56.4 227.488 57.008 227.352 57.52 227.08C58.048 226.808 58.456 226.424 58.744 225.928C59.048 225.432 59.2 224.832 59.2 224.128C59.2 223.44 59.048 222.848 58.744 222.352C58.456 221.856 58.048 221.48 57.52 221.224C57.008 220.968 56.4 220.84 55.696 220.84C55.408 220.84 55.112 220.864 54.808 220.912C54.52 220.96 54.264 221.024 54.04 221.104L53.416 219.784L58.12 214.24H50.512V211.84H61.288V214.12L56.68 219.64L56.608 218.728C57.68 218.744 58.624 218.984 59.44 219.448C60.256 219.896 60.888 220.52 61.336 221.32C61.8 222.104 62.032 223.016 62.032 224.056C62.032 225.176 61.76 226.192 61.216 227.104C60.672 228 59.92 228.712 58.96 229.24C58.016 229.752 56.928 230.008 55.696 230.008Z" fill="#1A202C"/>
<path d="M97.66 228V213.1H107.1V214.9H99.62V219.72H106.4V221.52H99.62V228H97.66ZM108.7 228V217.22H110.56V228H108.7ZM108.7 215.5V213.1H110.56V215.5H108.7ZM113.046 228V217.22H114.866V219.32L114.566 219.14C114.833 218.46 115.26 217.933 115.846 217.56C116.446 217.173 117.146 216.98 117.946 216.98C118.72 216.98 119.406 217.153 120.006 217.5C120.62 217.847 121.1 218.327 121.446 218.94C121.806 219.553 121.986 220.247 121.986 221.02V228H120.106V221.62C120.106 221.02 120 220.513 119.786 220.1C119.573 219.687 119.266 219.367 118.866 219.14C118.48 218.9 118.033 218.78 117.526 218.78C117.02 218.78 116.566 218.9 116.166 219.14C115.78 219.367 115.473 219.693 115.246 220.12C115.02 220.533 114.906 221.033 114.906 221.62V228H113.046ZM129.148 228.24C128.134 228.24 127.221 227.993 126.408 227.5C125.608 227.007 124.974 226.333 124.508 225.48C124.041 224.627 123.808 223.673 123.808 222.62C123.808 221.54 124.041 220.58 124.508 219.74C124.974 218.887 125.608 218.213 126.408 217.72C127.221 217.227 128.134 216.98 129.148 216.98C130.041 216.98 130.834 217.173 131.528 217.56C132.221 217.933 132.768 218.44 133.168 219.08L132.868 219.54V212.86H134.748V228H132.928V225.7L133.168 226.02C132.794 226.727 132.248 227.273 131.528 227.66C130.821 228.047 130.028 228.24 129.148 228.24ZM129.308 226.44C129.988 226.44 130.594 226.273 131.128 225.94C131.661 225.607 132.081 225.153 132.388 224.58C132.708 223.993 132.868 223.34 132.868 222.62C132.868 221.887 132.708 221.233 132.388 220.66C132.081 220.073 131.661 219.613 131.128 219.28C130.594 218.947 129.988 218.78 129.308 218.78C128.641 218.78 128.034 218.953 127.488 219.3C126.954 219.633 126.534 220.087 126.228 220.66C125.921 221.22 125.768 221.873 125.768 222.62C125.768 223.34 125.921 223.993 126.228 224.58C126.534 225.153 126.954 225.607 127.488 225.94C128.021 226.273 128.628 226.44 129.308 226.44ZM140.864 232.4C140.624 232.4 140.384 232.38 140.144 232.34C139.904 232.3 139.677 232.233 139.464 232.14V230.48C139.61 230.507 139.79 230.533 140.004 230.56C140.23 230.6 140.45 230.62 140.664 230.62C141.29 230.62 141.764 230.48 142.084 230.2C142.417 229.933 142.73 229.467 143.024 228.8L143.704 227.18L143.664 228.8L139.064 217.22H141.084L144.664 226.42H144.064L147.624 217.22H149.684L144.824 229.28C144.597 229.853 144.304 230.373 143.944 230.84C143.597 231.32 143.17 231.7 142.664 231.98C142.157 232.26 141.557 232.4 140.864 232.4ZM155.863 228.24C154.823 228.24 153.883 228 153.043 227.52C152.203 227.027 151.536 226.353 151.043 225.5C150.55 224.647 150.303 223.68 150.303 222.6C150.303 221.52 150.543 220.56 151.023 219.72C151.516 218.88 152.183 218.213 153.023 217.72C153.863 217.227 154.81 216.98 155.863 216.98C156.903 216.98 157.843 217.227 158.683 217.72C159.523 218.2 160.183 218.86 160.663 219.7C161.156 220.54 161.403 221.507 161.403 222.6C161.403 223.693 161.15 224.667 160.643 225.52C160.136 226.36 159.463 227.027 158.623 227.52C157.796 228 156.876 228.24 155.863 228.24ZM155.863 226.44C156.53 226.44 157.13 226.273 157.663 225.94C158.21 225.607 158.636 225.147 158.943 224.56C159.263 223.973 159.423 223.32 159.423 222.6C159.423 221.867 159.263 221.22 158.943 220.66C158.636 220.087 158.21 219.633 157.663 219.3C157.13 218.953 156.53 218.78 155.863 218.78C155.183 218.78 154.57 218.953 154.023 219.3C153.49 219.633 153.063 220.087 152.743 220.66C152.423 221.22 152.263 221.867 152.263 222.6C152.263 223.32 152.423 223.973 152.743 224.56C153.063 225.147 153.49 225.607 154.023 225.94C154.57 226.273 155.183 226.44 155.863 226.44ZM167.249 228.24C166.476 228.24 165.776 228.06 165.149 227.7C164.536 227.34 164.056 226.84 163.709 226.2C163.376 225.547 163.209 224.8 163.209 223.96V217.22H165.069V223.76C165.069 224.293 165.176 224.76 165.389 225.16C165.616 225.56 165.922 225.873 166.309 226.1C166.709 226.327 167.162 226.44 167.669 226.44C168.176 226.44 168.622 226.327 169.009 226.1C169.409 225.873 169.716 225.547 169.929 225.12C170.156 224.693 170.269 224.187 170.269 223.6V217.22H172.149V228H170.329V225.9L170.629 226.08C170.376 226.76 169.942 227.293 169.329 227.68C168.729 228.053 168.036 228.24 167.249 228.24ZM174.631 228V217.22H176.451V219.2L176.251 218.92C176.504 218.307 176.891 217.853 177.411 217.56C177.931 217.253 178.564 217.1 179.311 217.1H179.971V218.86H179.031C178.271 218.86 177.657 219.1 177.191 219.58C176.724 220.047 176.491 220.713 176.491 221.58V228H174.631ZM189.28 228.24C188.227 228.24 187.287 227.993 186.46 227.5C185.647 227.007 185.007 226.333 184.54 225.48C184.073 224.627 183.84 223.667 183.84 222.6C183.84 221.52 184.073 220.56 184.54 219.72C185.007 218.88 185.647 218.213 186.46 217.72C187.287 217.227 188.227 216.98 189.28 216.98C189.987 216.98 190.647 217.107 191.26 217.36C191.873 217.613 192.413 217.953 192.88 218.38C193.347 218.807 193.687 219.307 193.9 219.88L192.24 220.68C191.987 220.12 191.6 219.667 191.08 219.32C190.56 218.96 189.96 218.78 189.28 218.78C188.627 218.78 188.033 218.947 187.5 219.28C186.98 219.613 186.567 220.067 186.26 220.64C185.953 221.213 185.8 221.873 185.8 222.62C185.8 223.34 185.953 223.993 186.26 224.58C186.567 225.153 186.98 225.607 187.5 225.94C188.033 226.273 188.627 226.44 189.28 226.44C189.96 226.44 190.56 226.267 191.08 225.92C191.6 225.56 191.987 225.087 192.24 224.5L193.9 225.34C193.687 225.9 193.347 226.4 192.88 226.84C192.413 227.267 191.873 227.607 191.26 227.86C190.647 228.113 189.987 228.24 189.28 228.24ZM195.931 228V217.22H197.751V219.2L197.551 218.92C197.804 218.307 198.191 217.853 198.711 217.56C199.231 217.253 199.864 217.1 200.611 217.1H201.271V218.86H200.331C199.571 218.86 198.957 219.1 198.491 219.58C198.024 220.047 197.791 220.713 197.791 221.58V228H195.931ZM207.483 228.24C206.443 228.24 205.516 227.993 204.703 227.5C203.889 227.007 203.249 226.333 202.783 225.48C202.316 224.613 202.083 223.647 202.083 222.58C202.083 221.5 202.309 220.54 202.763 219.7C203.229 218.86 203.856 218.2 204.643 217.72C205.443 217.227 206.336 216.98 207.323 216.98C208.123 216.98 208.829 217.127 209.443 217.42C210.069 217.7 210.596 218.087 211.023 218.58C211.463 219.06 211.796 219.613 212.023 220.24C212.263 220.853 212.383 221.493 212.383 222.16C212.383 222.307 212.369 222.473 212.343 222.66C212.329 222.833 212.309 223 212.283 223.16H203.443V221.56H211.203L210.323 222.28C210.443 221.587 210.376 220.967 210.123 220.42C209.869 219.873 209.496 219.44 209.003 219.12C208.509 218.8 207.949 218.64 207.323 218.64C206.696 218.64 206.123 218.8 205.603 219.12C205.083 219.44 204.676 219.9 204.383 220.5C204.103 221.087 203.989 221.787 204.043 222.6C203.989 223.387 204.109 224.08 204.403 224.68C204.709 225.267 205.136 225.727 205.683 226.06C206.243 226.38 206.849 226.54 207.503 226.54C208.223 226.54 208.829 226.373 209.323 226.04C209.816 225.707 210.216 225.28 210.523 224.76L212.083 225.56C211.869 226.053 211.536 226.507 211.083 226.92C210.643 227.32 210.116 227.64 209.503 227.88C208.903 228.12 208.229 228.24 207.483 228.24ZM217.431 228.24C216.725 228.24 216.098 228.113 215.551 227.86C215.018 227.593 214.598 227.233 214.291 226.78C213.985 226.313 213.831 225.78 213.831 225.18C213.831 224.607 213.951 224.093 214.191 223.64C214.445 223.173 214.831 222.78 215.351 222.46C215.885 222.14 216.551 221.913 217.351 221.78L221.351 221.12V222.68L217.771 223.28C217.078 223.4 216.571 223.62 216.251 223.94C215.945 224.26 215.791 224.653 215.791 225.12C215.791 225.56 215.965 225.927 216.311 226.22C216.671 226.513 217.118 226.66 217.651 226.66C218.331 226.66 218.918 226.52 219.411 226.24C219.918 225.947 220.311 225.553 220.591 225.06C220.885 224.567 221.031 224.02 221.031 223.42V220.68C221.031 220.093 220.811 219.62 220.371 219.26C219.945 218.887 219.378 218.7 218.671 218.7C218.058 218.7 217.511 218.86 217.031 219.18C216.565 219.487 216.218 219.9 215.991 220.42L214.371 219.58C214.571 219.087 214.891 218.647 215.331 218.26C215.771 217.86 216.285 217.547 216.871 217.32C217.458 217.093 218.071 216.98 218.711 216.98C219.538 216.98 220.265 217.14 220.891 217.46C221.518 217.767 222.005 218.2 222.351 218.76C222.711 219.307 222.891 219.947 222.891 220.68V228H221.071V225.96L221.411 226.08C221.185 226.507 220.878 226.88 220.491 227.2C220.105 227.52 219.651 227.773 219.131 227.96C218.611 228.147 218.045 228.24 217.431 228.24ZM229.56 228.12C228.507 228.12 227.693 227.82 227.12 227.22C226.56 226.62 226.28 225.773 226.28 224.68V219H224.32V217.22H224.72C225.2 217.22 225.58 217.073 225.86 216.78C226.14 216.487 226.28 216.1 226.28 215.62V214.74H228.14V217.22H230.56V219H228.14V224.62C228.14 224.98 228.193 225.293 228.3 225.56C228.42 225.827 228.613 226.04 228.88 226.2C229.147 226.347 229.5 226.42 229.94 226.42C230.033 226.42 230.147 226.413 230.28 226.4C230.427 226.387 230.56 226.373 230.68 226.36V228C230.507 228.04 230.313 228.067 230.1 228.08C229.887 228.107 229.707 228.12 229.56 228.12ZM237.537 228.24C236.497 228.24 235.557 228 234.717 227.52C233.877 227.027 233.21 226.353 232.717 225.5C232.223 224.647 231.977 223.68 231.977 222.6C231.977 221.52 232.217 220.56 232.697 219.72C233.19 218.88 233.857 218.213 234.697 217.72C235.537 217.227 236.483 216.98 237.537 216.98C238.577 216.98 239.517 217.227 240.357 217.72C241.197 218.2 241.857 218.86 242.337 219.7C242.83 220.54 243.077 221.507 243.077 222.6C243.077 223.693 242.823 224.667 242.317 225.52C241.81 226.36 241.137 227.027 240.297 227.52C239.47 228 238.55 228.24 237.537 228.24ZM237.537 226.44C238.203 226.44 238.803 226.273 239.337 225.94C239.883 225.607 240.31 225.147 240.617 224.56C240.937 223.973 241.097 223.32 241.097 222.6C241.097 221.867 240.937 221.22 240.617 220.66C240.31 220.087 239.883 219.633 239.337 219.3C238.803 218.953 238.203 218.78 237.537 218.78C236.857 218.78 236.243 218.953 235.697 219.3C235.163 219.633 234.737 220.087 234.417 220.66C234.097 221.22 233.937 221.867 233.937 222.6C233.937 223.32 234.097 223.973 234.417 224.56C234.737 225.147 235.163 225.607 235.697 225.94C236.243 226.273 236.857 226.44 237.537 226.44ZM245.103 228V217.22H246.923V219.2L246.723 218.92C246.976 218.307 247.363 217.853 247.883 217.56C248.403 217.253 249.036 217.1 249.783 217.1H250.443V218.86H249.503C248.743 218.86 248.129 219.1 247.663 219.58C247.196 220.047 246.963 220.713 246.963 221.58V228H245.103ZM255.555 228.24C254.475 228.24 253.535 227.973 252.735 227.44C251.935 226.907 251.368 226.187 251.035 225.28L252.515 224.56C252.821 225.2 253.241 225.707 253.775 226.08C254.308 226.453 254.901 226.64 255.555 226.64C256.141 226.64 256.628 226.5 257.015 226.22C257.401 225.94 257.595 225.573 257.595 225.12C257.595 224.8 257.501 224.547 257.315 224.36C257.141 224.16 256.928 224.007 256.675 223.9C256.421 223.78 256.188 223.693 255.975 223.64L254.355 223.18C253.381 222.9 252.668 222.5 252.215 221.98C251.775 221.46 251.555 220.853 251.555 220.16C251.555 219.52 251.715 218.967 252.035 218.5C252.368 218.02 252.815 217.647 253.375 217.38C253.948 217.113 254.588 216.98 255.295 216.98C256.241 216.98 257.088 217.22 257.835 217.7C258.595 218.18 259.135 218.853 259.455 219.72L257.935 220.42C257.695 219.86 257.335 219.42 256.855 219.1C256.375 218.767 255.835 218.6 255.235 218.6C254.688 218.6 254.255 218.74 253.935 219.02C253.615 219.287 253.455 219.627 253.455 220.04C253.455 220.347 253.535 220.6 253.695 220.8C253.855 220.987 254.048 221.133 254.275 221.24C254.501 221.333 254.721 221.413 254.935 221.48L256.695 222C257.575 222.253 258.255 222.647 258.735 223.18C259.228 223.713 259.475 224.353 259.475 225.1C259.475 225.7 259.308 226.24 258.975 226.72C258.641 227.2 258.181 227.573 257.595 227.84C257.008 228.107 256.328 228.24 255.555 228.24Z" fill="white"/>
<circle cx="56" cy="303" r="24" fill="white"/>
<path d="M57.6981 312.72V308.688H49.1781V306.336L57.5781 294.84H60.3861V306.336H62.8581V308.688H60.3861V312.72H57.6981ZM51.2661 307.368L50.8101 306.336H57.6981V297.096L58.4661 297.336L51.2661 307.368Z" fill="#1A202C"/>
<path d="M102.78 311.24C101.833 311.24 100.967 311.067 100.18 310.72C99.3933 310.36 98.7267 309.873 98.18 309.26C97.6333 308.647 97.24 307.96 97 307.2L98.7 306.5C99.06 307.46 99.5933 308.2 100.3 308.72C101.02 309.227 101.86 309.48 102.82 309.48C103.407 309.48 103.92 309.387 104.36 309.2C104.8 309.013 105.14 308.753 105.38 308.42C105.633 308.073 105.76 307.673 105.76 307.22C105.76 306.593 105.58 306.1 105.22 305.74C104.873 305.367 104.36 305.087 103.68 304.9L100.94 304.06C99.86 303.727 99.0333 303.2 98.46 302.48C97.8867 301.76 97.6 300.933 97.6 300C97.6 299.187 97.7933 298.473 98.18 297.86C98.58 297.233 99.1267 296.747 99.82 296.4C100.527 296.04 101.327 295.86 102.22 295.86C103.113 295.86 103.92 296.02 104.64 296.34C105.373 296.66 105.993 297.093 106.5 297.64C107.007 298.173 107.38 298.787 107.62 299.48L105.94 300.18C105.62 299.34 105.14 298.707 104.5 298.28C103.86 297.84 103.107 297.62 102.24 297.62C101.707 297.62 101.233 297.713 100.82 297.9C100.42 298.073 100.107 298.333 99.88 298.68C99.6667 299.013 99.56 299.413 99.56 299.88C99.56 300.427 99.7333 300.913 100.08 301.34C100.427 301.767 100.953 302.093 101.66 302.32L104.16 303.06C105.333 303.42 106.22 303.933 106.82 304.6C107.42 305.267 107.72 306.093 107.72 307.08C107.72 307.893 107.507 308.613 107.08 309.24C106.667 309.867 106.087 310.36 105.34 310.72C104.607 311.067 103.753 311.24 102.78 311.24ZM114.93 311.24C113.89 311.24 112.963 310.993 112.15 310.5C111.336 310.007 110.696 309.333 110.23 308.48C109.763 307.613 109.53 306.647 109.53 305.58C109.53 304.5 109.756 303.54 110.21 302.7C110.676 301.86 111.303 301.2 112.09 300.72C112.89 300.227 113.783 299.98 114.77 299.98C115.57 299.98 116.276 300.127 116.89 300.42C117.516 300.7 118.043 301.087 118.47 301.58C118.91 302.06 119.243 302.613 119.47 303.24C119.71 303.853 119.83 304.493 119.83 305.16C119.83 305.307 119.816 305.473 119.79 305.66C119.776 305.833 119.756 306 119.73 306.16H110.89V304.56H118.65L117.77 305.28C117.89 304.587 117.823 303.967 117.57 303.42C117.316 302.873 116.943 302.44 116.45 302.12C115.956 301.8 115.396 301.64 114.77 301.64C114.143 301.64 113.57 301.8 113.05 302.12C112.53 302.44 112.123 302.9 111.83 303.5C111.55 304.087 111.436 304.787 111.49 305.6C111.436 306.387 111.556 307.08 111.85 307.68C112.156 308.267 112.583 308.727 113.13 309.06C113.69 309.38 114.296 309.54 114.95 309.54C115.67 309.54 116.276 309.373 116.77 309.04C117.263 308.707 117.663 308.28 117.97 307.76L119.53 308.56C119.316 309.053 118.983 309.507 118.53 309.92C118.09 310.32 117.563 310.64 116.95 310.88C116.35 311.12 115.676 311.24 114.93 311.24ZM124.878 311.24C124.171 311.24 123.545 311.113 122.998 310.86C122.465 310.593 122.045 310.233 121.738 309.78C121.431 309.313 121.278 308.78 121.278 308.18C121.278 307.607 121.398 307.093 121.638 306.64C121.891 306.173 122.278 305.78 122.798 305.46C123.331 305.14 123.998 304.913 124.798 304.78L128.798 304.12V305.68L125.218 306.28C124.525 306.4 124.018 306.62 123.698 306.94C123.391 307.26 123.238 307.653 123.238 308.12C123.238 308.56 123.411 308.927 123.758 309.22C124.118 309.513 124.565 309.66 125.098 309.66C125.778 309.66 126.365 309.52 126.858 309.24C127.365 308.947 127.758 308.553 128.038 308.06C128.331 307.567 128.478 307.02 128.478 306.42V303.68C128.478 303.093 128.258 302.62 127.818 302.26C127.391 301.887 126.825 301.7 126.118 301.7C125.505 301.7 124.958 301.86 124.478 302.18C124.011 302.487 123.665 302.9 123.438 303.42L121.818 302.58C122.018 302.087 122.338 301.647 122.778 301.26C123.218 300.86 123.731 300.547 124.318 300.32C124.905 300.093 125.518 299.98 126.158 299.98C126.985 299.98 127.711 300.14 128.338 300.46C128.965 300.767 129.451 301.2 129.798 301.76C130.158 302.307 130.338 302.947 130.338 303.68V311H128.518V308.96L128.858 309.08C128.631 309.507 128.325 309.88 127.938 310.2C127.551 310.52 127.098 310.773 126.578 310.96C126.058 311.147 125.491 311.24 124.878 311.24ZM132.822 311V295.86H134.682V311H132.822ZM144.605 311.12C143.552 311.12 142.738 310.82 142.165 310.22C141.605 309.62 141.325 308.773 141.325 307.68V302H139.365V300.22H139.765C140.245 300.22 140.625 300.073 140.905 299.78C141.185 299.487 141.325 299.1 141.325 298.62V297.74H143.185V300.22H145.605V302H143.185V307.62C143.185 307.98 143.238 308.293 143.345 308.56C143.465 308.827 143.658 309.04 143.925 309.2C144.192 309.347 144.545 309.42 144.985 309.42C145.078 309.42 145.192 309.413 145.325 309.4C145.472 309.387 145.605 309.373 145.725 309.36V311C145.552 311.04 145.358 311.067 145.145 311.08C144.932 311.107 144.752 311.12 144.605 311.12ZM147.755 311V295.86H149.615V302.32L149.275 302.14C149.542 301.46 149.968 300.933 150.555 300.56C151.155 300.173 151.855 299.98 152.655 299.98C153.428 299.98 154.115 300.153 154.715 300.5C155.328 300.847 155.808 301.327 156.155 301.94C156.515 302.553 156.695 303.247 156.695 304.02V311H154.815V304.62C154.815 304.02 154.702 303.513 154.475 303.1C154.262 302.687 153.962 302.367 153.575 302.14C153.188 301.9 152.742 301.78 152.235 301.78C151.742 301.78 151.295 301.9 150.895 302.14C150.495 302.367 150.182 302.693 149.955 303.12C149.728 303.533 149.615 304.033 149.615 304.62V311H147.755ZM163.916 311.24C162.876 311.24 161.95 310.993 161.136 310.5C160.323 310.007 159.683 309.333 159.216 308.48C158.75 307.613 158.516 306.647 158.516 305.58C158.516 304.5 158.743 303.54 159.196 302.7C159.663 301.86 160.29 301.2 161.076 300.72C161.876 300.227 162.77 299.98 163.756 299.98C164.556 299.98 165.263 300.127 165.876 300.42C166.503 300.7 167.03 301.087 167.456 301.58C167.896 302.06 168.23 302.613 168.456 303.24C168.696 303.853 168.816 304.493 168.816 305.16C168.816 305.307 168.803 305.473 168.776 305.66C168.763 305.833 168.743 306 168.716 306.16H159.876V304.56H167.636L166.756 305.28C166.876 304.587 166.81 303.967 166.556 303.42C166.303 302.873 165.93 302.44 165.436 302.12C164.943 301.8 164.383 301.64 163.756 301.64C163.13 301.64 162.556 301.8 162.036 302.12C161.516 302.44 161.11 302.9 160.816 303.5C160.536 304.087 160.423 304.787 160.476 305.6C160.423 306.387 160.543 307.08 160.836 307.68C161.143 308.267 161.57 308.727 162.116 309.06C162.676 309.38 163.283 309.54 163.936 309.54C164.656 309.54 165.263 309.373 165.756 309.04C166.25 308.707 166.65 308.28 166.956 307.76L168.516 308.56C168.303 309.053 167.97 309.507 167.516 309.92C167.076 310.32 166.55 310.64 165.936 310.88C165.336 311.12 164.663 311.24 163.916 311.24ZM178.799 311.24C177.785 311.24 176.872 310.993 176.059 310.5C175.259 310.007 174.625 309.333 174.159 308.48C173.692 307.627 173.459 306.673 173.459 305.62C173.459 304.54 173.692 303.58 174.159 302.74C174.625 301.887 175.259 301.213 176.059 300.72C176.872 300.227 177.785 299.98 178.799 299.98C179.692 299.98 180.485 300.173 181.179 300.56C181.872 300.933 182.419 301.44 182.819 302.08L182.519 302.54V295.86H184.399V311H182.579V308.7L182.819 309.02C182.445 309.727 181.899 310.273 181.179 310.66C180.472 311.047 179.679 311.24 178.799 311.24ZM178.959 309.44C179.639 309.44 180.245 309.273 180.779 308.94C181.312 308.607 181.732 308.153 182.039 307.58C182.359 306.993 182.519 306.34 182.519 305.62C182.519 304.887 182.359 304.233 182.039 303.66C181.732 303.073 181.312 302.613 180.779 302.28C180.245 301.947 179.639 301.78 178.959 301.78C178.292 301.78 177.685 301.953 177.139 302.3C176.605 302.633 176.185 303.087 175.879 303.66C175.572 304.22 175.419 304.873 175.419 305.62C175.419 306.34 175.572 306.993 175.879 307.58C176.185 308.153 176.605 308.607 177.139 308.94C177.672 309.273 178.279 309.44 178.959 309.44ZM191.838 311.24C190.798 311.24 189.871 310.993 189.058 310.5C188.244 310.007 187.604 309.333 187.138 308.48C186.671 307.613 186.438 306.647 186.438 305.58C186.438 304.5 186.664 303.54 187.118 302.7C187.584 301.86 188.211 301.2 188.998 300.72C189.798 300.227 190.691 299.98 191.678 299.98C192.478 299.98 193.184 300.127 193.798 300.42C194.424 300.7 194.951 301.087 195.378 301.58C195.818 302.06 196.151 302.613 196.378 303.24C196.618 303.853 196.737 304.493 196.737 305.16C196.737 305.307 196.724 305.473 196.698 305.66C196.684 305.833 196.664 306 196.638 306.16H187.798V304.56H195.558L194.678 305.28C194.798 304.587 194.731 303.967 194.478 303.42C194.224 302.873 193.851 302.44 193.358 302.12C192.864 301.8 192.304 301.64 191.678 301.64C191.051 301.64 190.478 301.8 189.958 302.12C189.438 302.44 189.031 302.9 188.738 303.5C188.458 304.087 188.344 304.787 188.398 305.6C188.344 306.387 188.464 307.08 188.758 307.68C189.064 308.267 189.491 308.727 190.038 309.06C190.598 309.38 191.204 309.54 191.858 309.54C192.578 309.54 193.184 309.373 193.678 309.04C194.171 308.707 194.571 308.28 194.878 307.76L196.438 308.56C196.224 309.053 195.891 309.507 195.438 309.92C194.998 310.32 194.471 310.64 193.858 310.88C193.258 311.12 192.584 311.24 191.838 311.24ZM201.786 311.24C201.079 311.24 200.453 311.113 199.906 310.86C199.373 310.593 198.953 310.233 198.646 309.78C198.339 309.313 198.186 308.78 198.186 308.18C198.186 307.607 198.306 307.093 198.546 306.64C198.799 306.173 199.186 305.78 199.706 305.46C200.239 305.14 200.906 304.913 201.706 304.78L205.706 304.12V305.68L202.126 306.28C201.433 306.4 200.926 306.62 200.606 306.94C200.299 307.26 200.146 307.653 200.146 308.12C200.146 308.56 200.319 308.927 200.666 309.22C201.026 309.513 201.473 309.66 202.006 309.66C202.686 309.66 203.273 309.52 203.766 309.24C204.273 308.947 204.666 308.553 204.946 308.06C205.239 307.567 205.386 307.02 205.386 306.42V303.68C205.386 303.093 205.166 302.62 204.726 302.26C204.299 301.887 203.733 301.7 203.026 301.7C202.413 301.7 201.866 301.86 201.386 302.18C200.919 302.487 200.573 302.9 200.346 303.42L198.726 302.58C198.926 302.087 199.246 301.647 199.686 301.26C200.126 300.86 200.639 300.547 201.226 300.32C201.813 300.093 202.426 299.98 203.066 299.98C203.893 299.98 204.619 300.14 205.246 300.46C205.873 300.767 206.359 301.2 206.706 301.76C207.066 302.307 207.246 302.947 207.246 303.68V311H205.426V308.96L205.766 309.08C205.539 309.507 205.233 309.88 204.846 310.2C204.459 310.52 204.006 310.773 203.486 310.96C202.966 311.147 202.399 311.24 201.786 311.24ZM209.73 311V295.86H211.59V311H209.73Z" fill="white"/>
<path d="M56 78L56 279" stroke="#E7DEFE" stroke-width="2" stroke-dasharray="8 8"/>
</svg>
